<svg width="24" height="24" viewBox="0 0 24 24" fill="none" xmlns="http://www.w3.org/2000/svg">
<path d="M19.8436 9.9666L12.6549 14.1099C12.4529 14.2262 12.2263 14.2847 11.9998 14.2847C11.7733 14.2847 11.5468 14.2265 11.3448 14.1099L4.15552 9.9666L2.22058 8.8512C1.9682 8.70565 1.64258 8.87508 1.64258 9.15196V17.97C1.64258 18.539 2.137 19 2.74658 19H21.2525C21.8624 19 22.3565 18.5387 22.3565 17.97V9.15196C22.3565 8.87508 22.0309 8.7059 21.7785 8.8512L19.8433 9.9666H19.8436Z" fill="white"/>
<path d="M21.2525 6.08186H2.74658C2.137 6.08186 1.64258 6.54316 1.64258 7.11191C1.64258 7.19218 1.68723 7.26686 1.76047 7.30928L11.5827 12.9703C11.84 13.1187 12.1594 13.1187 12.4164 12.9703L22.2386 7.30928C22.3119 7.26711 22.3565 7.19243 22.3565 7.11191C22.3565 6.54291 21.8621 6.08186 21.2525 6.08186Z" fill="white"/>
</svg>
