<svg width="24" height="24" viewBox="0 0 24 24" fill="none" xmlns="http://www.w3.org/2000/svg">
<path d="M23.0097 6.69768C23.1682 6.22407 23.0097 5.87549 22.2474 5.87549H19.7247C19.0823 5.87549 18.7868 6.17481 18.6283 6.50824C18.6283 6.50824 17.3434 9.27794 15.5274 11.0739C14.9407 11.593 14.6709 11.7597 14.3496 11.7597C14.1912 11.7597 13.947 11.593 13.947 11.1194V6.69768C13.947 6.12935 13.7672 5.87549 13.2361 5.87549H9.27008C8.86748 5.87549 8.62764 6.14071 8.62764 6.38699C8.62764 6.92502 9.53562 7.05005 9.62984 8.56562V11.8544C9.62984 12.5743 9.48422 12.7069 9.163 12.7069C8.30642 12.7069 6.22491 9.92585 4.99142 6.74315C4.74301 6.12556 4.49888 5.87549 3.85216 5.87549H1.32951C0.609975 5.87549 0.464355 6.17481 0.464355 6.50824C0.464355 7.09931 1.32094 10.0357 4.45177 13.9156C6.53756 16.564 9.47566 18 12.1482 18C13.7543 18 13.9513 17.6818 13.9513 17.1324C13.9513 14.6014 13.8057 14.3627 14.6109 14.3627C14.9835 14.3627 15.626 14.5294 17.125 15.8063C18.8382 17.3218 19.1208 18 20.0802 18H22.6029C23.3224 18 23.6864 17.6818 23.4766 17.0528C22.9969 15.7305 19.7547 13.01 19.6091 12.8282C19.2365 12.4038 19.3435 12.2144 19.6091 11.8355C19.6134 11.8317 22.6928 7.99728 23.0097 6.69768Z" fill="#856929"/>
</svg>
