<svg width="24" height="24" viewBox="0 0 24 24" fill="none" xmlns="http://www.w3.org/2000/svg">
<path d="M23.0102 6.69765C23.1687 6.22404 23.0102 5.87546 22.2479 5.87546H19.7252C19.0828 5.87546 18.7873 6.17478 18.6288 6.50821C18.6288 6.50821 17.3439 9.27791 15.5279 11.0739C14.9412 11.5929 14.6713 11.7597 14.3501 11.7597C14.1917 11.7597 13.9475 11.5929 13.9475 11.1193V6.69765C13.9475 6.12932 13.7677 5.87546 13.2366 5.87546H9.27057C8.86797 5.87546 8.62812 6.14068 8.62812 6.38696C8.62812 6.92499 9.53611 7.05002 9.63033 8.56559V11.8544C9.63033 12.5743 9.48471 12.7069 9.16349 12.7069C8.3069 12.7069 6.2254 9.92581 4.99191 6.74312C4.7435 6.12553 4.49937 5.87546 3.85265 5.87546H1.33C0.610464 5.87546 0.464844 6.17478 0.464844 6.50821C0.464844 7.09928 1.32143 10.0357 4.45226 13.9155C6.53805 16.564 9.47615 18 12.1487 18C13.7548 18 13.9518 17.6817 13.9518 17.1323C13.9518 14.6013 13.8062 14.3626 14.6114 14.3626C14.984 14.3626 15.6264 14.5294 17.1255 15.8062C18.8386 17.3218 19.1213 18 20.0807 18H22.6034C23.3229 18 23.6869 17.6817 23.4771 17.0528C22.9974 15.7304 19.7552 13.01 19.6096 12.8281C19.237 12.4038 19.344 12.2143 19.6096 11.8354C19.6139 11.8316 22.6933 7.99725 23.0102 6.69765Z" fill="white"/>
</svg>
