<svg width="56" height="56" viewBox="0 0 56 56" fill="none" xmlns="http://www.w3.org/2000/svg">
<g clip-path="url(#clip0_2008_1555)">
<path d="M50.5433 15.5758C46.1479 10.093 40.0465 6.88279 33.6586 5.97116C33.6391 6.71349 33.587 7.46233 33.4372 8.19163C33.4112 8.32186 33.3721 8.45209 33.3395 8.58233C53.9554 11.7209 61.7302 36.7321 46.8577 51.546C57.8428 42.9312 59.2623 26.3916 50.5367 15.5823L50.5433 15.5758Z" fill="#D3BF6D"/>
<path d="M28.013 5.75628C21.8009 6.19256 15.6995 8.79721 10.9721 13.6614C10.2558 14.4949 9.12279 15.654 8.54977 16.5786C7.85954 17.4642 7.11721 18.7991 6.5507 19.7888C6.12093 20.7916 5.35256 22.2177 5.08558 23.266C5.00093 23.5395 4.7014 24.347 4.62977 24.6009C2.59163 31.894 3.83535 40.2158 8.36093 46.2716L8.46512 46.2065C6.10791 41.9805 4.92279 37.2009 5.10512 32.4865C5.31349 27.7786 6.73954 23.1749 9.34419 19.333C13.2707 13.4009 19.574 9.55907 26.4502 8.56279C26.8995 7.59907 27.5181 6.70698 28.0065 5.74977L28.013 5.75628Z" fill="#D3BF6D"/>
<path d="M23.6307 54.1702C23.3312 54.066 23.1293 53.8447 23.1033 53.5386C23.0577 53.1088 23.0446 52.6726 23.0772 52.2428C23.1098 51.8326 23.227 51.4288 23.3116 50.9991C21.8205 51.3377 20.3098 51.3898 18.7795 51.3312C18.7926 51.4028 18.7926 51.4353 18.8056 51.4679C19.1898 52.5228 19.6846 53.5256 20.3944 54.4112C20.7591 54.867 21.1693 55.2967 21.7749 55.4074C22.1981 55.4856 22.6344 55.466 23.0707 55.4726C23.6112 55.4791 24.1451 55.4726 24.7181 55.4726C24.4967 54.893 24.2623 54.3851 23.6372 54.1702H23.6307Z" fill="#D3BF6D"/>
<path d="M22.3088 36.8037C22.667 36.8233 23.0316 36.8493 23.3898 36.8819C24.2102 36.9535 25.0567 37.0186 25.9163 36.934C27.0623 36.8102 27.9349 36.5302 28.6512 36.0354C29.094 35.7293 29.5367 35.4102 29.96 35.1042L30.253 34.8958C31.9395 33.6847 33.5805 32.9619 35.2735 32.7014C35.4298 32.6754 35.56 32.5647 35.6381 32.4474C35.5926 32.4474 35.547 32.4605 35.4949 32.4605C34.1535 32.5256 32.8446 32.3563 31.5358 32.0633C30.6437 31.8614 29.7451 31.6791 28.84 31.5553C27.9479 31.4316 27.0558 31.4707 26.1637 31.653C24.2037 32.0567 22.667 33.0791 21.56 34.707C21.1172 35.3581 20.8372 36.0549 20.6874 36.7842C21.1758 36.7712 21.7098 36.7842 22.3153 36.8037H22.3088Z" fill="url(#paint0_linear_2008_1555)"/>
<path d="M47.3786 24.4707C47.7823 24.614 48.16 24.7442 48.5767 24.894C47.587 23.7219 46.4019 22.8819 45.08 22.2177C45.4707 22.2502 45.8614 22.2828 46.2586 22.3153C45.6074 21.5665 43.2567 20.5898 41.3684 20.2512C41.6614 20.186 41.9609 20.1144 42.293 20.0428C41.453 19.8019 40.6326 19.6521 39.7991 19.587C38.8288 19.5088 37.8586 19.5088 36.9144 19.7433C36.5823 19.8279 36.3739 19.7888 36.133 19.5414C35.6837 19.0726 34.8958 18.8251 34.3163 18.8967C34.6549 19.294 34.9544 19.7172 35.1107 20.147C34.6679 20.4465 34.2512 20.7135 33.8605 21.013C33.4242 21.3451 32.9749 21.6577 32.4149 21.7358C32.2326 21.7619 32.0437 21.7619 31.8223 21.7749C32.4344 22.3414 33.1377 22.4586 33.9256 22.3674C33.8735 22.4521 33.8344 22.5107 33.7953 22.5693C33.0726 23.6177 32.3498 24.6595 31.6335 25.7079C31.1321 26.4372 30.6372 27.1665 30.1423 27.8958C30.0967 27.9674 30.0512 28.0716 30.0707 28.1433C30.1619 28.534 30.2791 28.9181 30.3832 29.3023C30.4419 29.5172 30.5916 29.6279 30.8 29.6865C31.0149 29.7451 31.2298 29.7907 31.4381 29.8493C31.4967 29.8688 31.5488 29.9209 31.6074 29.96C31.6986 30.0121 31.7833 30.1033 31.8744 30.1098C32.2651 30.1293 32.6233 29.986 32.9814 29.8298C33.1833 29.7386 33.307 29.6019 33.3656 29.387C33.4567 29.0419 33.6716 28.7879 33.9972 28.6316C34.3228 28.4753 34.6484 28.3126 34.9805 28.1628C35.6121 27.8763 36.2502 27.6223 36.9665 27.5637C37.5851 27.5116 38.1321 27.2512 38.5553 26.7823C39.1414 26.1312 39.3563 25.3563 39.2846 24.4967C39.2586 24.2102 39.2 23.9237 39.1479 23.6112C39.1805 23.6567 39.2 23.6893 39.213 23.7153C39.2781 23.8846 39.3302 24.0605 39.4019 24.2298C39.4344 24.3079 39.4735 24.4056 39.5386 24.4577C40.6195 25.2586 41.453 26.2679 42.0195 27.4726C42.7879 29.1005 43.0419 30.7805 42.4688 32.5256C42.3712 32.8251 42.2279 33.1051 42.1042 33.3981C42.267 32.0112 42.2214 30.6633 41.8307 29.3349C41.4074 27.9088 40.32 26.1767 39.6949 25.9163C40.027 26.6651 40.2744 27.427 40.3005 28.2474C40.3395 29.7581 39.7209 30.9302 38.4056 31.7181C38.0344 31.9395 37.6502 32.0893 37.253 32.2C37.4093 32.3433 37.533 32.5451 37.6112 32.8121L37.6567 32.9749L37.8326 32.9879C38.4251 33.027 39.0046 33.1963 39.6037 33.5153C40.2939 33.8865 40.9256 34.2772 41.1405 35.0716C41.1926 35.2735 41.4205 35.3712 41.4921 35.3972C42.1107 35.6251 42.9246 35.9246 43.7646 36.2177C43.8081 36.2307 43.8341 36.2546 43.8428 36.2893C44.0056 36.947 43.9014 37.6047 43.5367 38.1321C43.1851 38.6465 42.6316 38.9851 41.9805 39.0763C40.3786 39.3107 39.2195 40.1963 38.5293 41.7265C38.1386 42.5926 38.067 43.4977 38.0474 44.1944C38.0344 44.6698 38.0474 45.1581 38.0735 45.666C38.1712 45.8158 38.2298 45.9656 38.2298 46.1153C38.2167 46.5712 38.2298 47.027 38.2623 47.4763C38.2819 47.6326 38.3014 47.7823 38.3274 47.9451C38.6205 49.7879 39.1153 51.4028 39.8577 52.8679C39.9098 52.9721 39.9684 53.0698 40.027 53.1674C40.0335 52.386 40.04 51.6047 40.066 50.8233C40.0791 50.4065 40.1767 50.0028 40.3656 49.6251C40.4307 49.4884 40.4763 49.3321 40.4893 49.1823C40.5674 48.2967 40.5935 47.3981 40.7107 46.5191C40.8474 45.4902 41.0558 44.4744 41.2251 43.4521C41.2512 43.2958 41.3358 43.2567 41.4856 43.2502C42.7619 43.1786 43.9665 42.866 45.106 42.2995C45.3925 42.1563 45.666 41.987 45.946 41.8307C44.9498 42.9181 43.6995 43.5498 42.28 43.8819C42.3581 44.5981 42.4428 45.2819 42.5079 45.9656C42.6251 47.2939 42.7684 48.6223 42.827 49.9572C42.8856 51.1879 42.853 52.4186 42.853 53.6493C42.853 53.8316 42.8791 53.9619 43.0353 54.0856C43.1721 54.1898 43.2763 54.346 43.3674 54.4893C43.5563 54.7888 43.5693 55.1274 43.5823 55.466C43.5953 55.7591 43.6474 55.8046 43.9405 55.8046C44.6698 55.8046 45.3926 55.8177 46.1219 55.8242C46.1544 55.8242 46.187 55.8177 46.2391 55.8046C45.8614 55.3098 45.5098 54.8409 45.1451 54.3721C44.8456 53.9814 44.5591 53.5581 44.5656 53.0632C44.5786 52.0539 44.6307 51.0381 44.7153 50.0353C44.7479 49.6381 44.9367 49.254 45.0019 48.8567C45.067 48.453 45.0214 48.0363 45.0865 47.6391C45.3274 46.174 45.6986 44.7349 46.1479 43.3153C46.4019 42.5144 46.6623 41.7135 47.1898 41.0233C47.9516 40.027 48.3163 38.8744 48.44 37.6502C48.5312 36.7321 48.44 35.827 48.2577 34.9284C48.2121 34.6874 48.1405 34.414 48.2056 34.1926C48.3944 33.5349 48.5246 32.8642 48.5637 32.187C48.6353 30.9888 48.5246 29.7972 48.1274 28.6577C47.2549 26.0986 45.6335 24.1191 43.2828 22.7386C42.2149 22.1135 41.0623 21.7163 39.8186 21.6577C38.4772 21.5926 37.227 21.8986 36.1265 22.693C36.1265 22.693 36.12 22.68 36.1265 22.68C36.7842 21.7163 37.7219 21.1953 38.8614 21.026C39.9032 20.8698 40.9256 20.9935 41.9088 21.3451C45.1581 22.5107 47.4112 24.6921 48.6158 27.8958C48.8633 28.56 49.0065 29.2633 49.1823 29.8819C49.5014 28.5991 49.3321 26.4047 47.4177 24.5163L47.3786 24.4707ZM47.7042 33.0986C47.7302 31.5879 47.4763 30.1228 47.053 28.6772C47.7563 30.0837 48.0558 31.5423 47.7042 33.0986Z" fill="url(#paint1_linear_2008_1555)"/>
<path d="M42.5535 36.4391C42.5144 36.8688 42.7228 37.1293 43.0809 37.3051C43.0223 37.5395 42.8921 37.7023 42.6642 37.7609C42.0065 37.9367 41.3684 37.8195 40.7367 37.6047C41.1209 36.6214 40.9581 35.7423 40.2093 35.0326C39.5126 34.3684 38.6856 34.4335 37.8326 34.7395C37.9693 34.5767 38.1126 34.4074 38.2884 34.2837C38.4707 34.1535 38.6856 34.0688 38.9395 33.9321C38.6595 33.8149 38.4121 33.6847 38.1516 33.613C37.8846 33.5414 37.6046 33.5219 37.3246 33.4763C37.3181 33.4047 37.3116 33.3265 37.3051 33.2549C37.2465 32.8707 36.9209 32.5386 36.5953 32.5321C36.3153 32.5321 36.0093 32.8186 35.9702 33.2028C35.9377 33.5349 35.9442 33.8735 35.9963 34.1991C36.0353 34.4791 36.1591 34.746 36.2502 35.026C35.6577 34.6223 35.2735 34.1014 35.2409 33.3526C34.3423 33.5088 33.5414 33.8344 32.7991 34.3944C33.1702 34.3228 33.4958 34.2642 33.8279 34.2056C32.2586 34.9609 31.0995 36.1135 30.3246 37.6567C30.4484 36.9014 30.7219 36.2047 31.1646 35.5795C31.08 35.6056 31.0084 35.6381 30.9433 35.6772C30.5135 35.9312 30.0837 36.1721 29.667 36.4456C27.8177 37.6698 25.773 38.1256 23.5721 37.9953C22.1916 37.9107 20.8112 37.8326 19.4307 37.9953C17.8484 38.1907 16.3377 38.6074 14.9442 39.3823C11.9619 41.0428 10.4251 43.5758 10.3079 46.9488C10.2428 48.8047 10.4446 50.6344 10.8028 52.4577C10.9721 53.3172 11.226 54.1442 11.734 54.88C12.2028 55.5637 12.8214 55.9479 13.7005 55.9219C14.7553 55.8893 15.8167 55.9219 16.8716 55.9219C16.9367 55.9219 17.0019 55.9219 17.0735 55.9219C16.9367 55.4074 16.546 54.9972 16.0121 54.7823C15.5172 54.5805 15.2893 54.2419 15.374 53.7209C15.426 53.3953 15.5107 53.0567 15.6474 52.7572C16.0446 51.8716 16.7088 51.1749 17.373 50.4847C18.174 49.6577 18.9879 48.8437 19.5805 47.8474C19.7628 47.5414 19.9191 47.2158 20.0884 46.9033C19.8344 48.1014 19.307 49.1693 18.5191 50.133C19.9451 50.2828 22.7842 49.9833 24.1321 49.5405C24.1972 49.5209 24.2753 49.4493 24.3014 49.3907C24.7442 48.4009 25.3628 47.5154 26.0205 46.6558C26.1377 46.4995 26.2549 46.3433 26.3721 46.187C26.1963 46.6688 25.9749 47.1312 25.773 47.5935C25.1219 49.0716 24.5553 50.5628 24.7507 52.2233C24.8744 53.2977 25.2195 54.2874 25.9228 55.1274C26.3786 55.6744 26.9386 55.9609 27.6809 55.9349C28.6902 55.9023 29.6995 55.9284 30.7023 55.9349C30.7805 55.9349 30.8586 55.9349 30.9628 55.9349C30.7088 55.3033 30.3116 54.893 29.6605 54.7563C29.146 54.6456 28.853 54.3265 28.7814 53.8121C28.6902 53.174 28.8465 52.5749 29.0679 51.9888C29.4586 50.9405 30.1358 50.0679 30.813 49.1888C31.5814 48.1991 32.3367 47.1898 32.8186 46.0242C33.053 45.4642 33.2288 44.8781 33.4177 44.3312C33.4177 46.4019 32.5972 48.2056 31.2949 49.827C31.347 49.8921 31.3926 49.9442 31.4316 49.9963C32.3888 51.0707 33.3395 52.1516 34.3098 53.2065C34.9739 53.9293 35.6577 54.6391 36.3544 55.3293C36.7777 55.7526 37.3116 55.9349 37.9172 55.9284C39.0893 55.9219 40.2679 55.9284 41.44 55.9284C41.5051 55.9284 41.5702 55.9284 41.6679 55.9154C41.4074 55.2381 41.0428 54.6977 40.3135 54.5023C39.7795 54.3591 39.4084 54.04 39.1414 53.5712C38.4056 52.2688 37.9237 50.8688 37.6567 49.4167C37.4353 48.1991 37.2595 46.9749 37.1684 45.7442C37.0642 44.3702 37.1488 43.0028 37.6958 41.7005C38.4772 39.8447 39.747 38.6009 41.9023 38.4642C42.9312 38.3991 43.4912 37.5851 43.4195 36.5302C43.1395 36.5042 42.853 36.4716 42.56 36.4391H42.5535Z" fill="#B51023"/>
<path d="M28.6056 18.3302C28.2605 18.1088 28.2474 18.0112 28.4884 17.7442C28.6316 17.5879 28.547 17.4381 28.4623 17.3079C28.4298 17.2623 28.2995 17.2688 28.2214 17.2819C27.4921 17.373 27.2251 17.9916 26.9256 18.5191C26.6977 18.9228 26.5349 19.3591 26.1963 19.6977C26.1312 19.7628 26.0856 19.854 26.027 19.9321C26.0465 19.9451 26.066 19.9581 26.066 19.9516C26.4242 19.5805 26.9321 19.587 27.3749 19.4242C27.5702 19.3526 27.7265 19.4242 27.8242 19.587C28.1563 20.1274 28.2865 20.707 28.1367 21.3256C28.1042 21.4623 27.9674 21.586 27.8502 21.6837C27.7005 21.8074 27.5312 21.9051 27.3684 22.0093C27.2772 22.0679 27.186 22.1395 27.0884 22.1916C26.7302 22.387 26.6261 22.3674 26.3395 22.0419C26.1377 22.2047 25.9293 22.3609 25.734 22.5302C25.5126 22.7321 25.3107 22.9535 25.0828 23.1488C24.9005 23.2986 24.7051 23.4288 24.4967 23.5395C24.347 23.6177 24.36 23.6893 24.4447 23.7935C24.6465 24.067 24.666 24.2363 24.4316 24.4772C23.9954 24.9395 23.6437 25.5126 22.9665 25.6949C22.8949 25.7144 22.8167 25.7926 22.7907 25.8642C22.6409 26.2809 22.2567 26.4242 21.9377 26.6586C21.56 26.9386 21.1302 27.0037 20.6679 26.9126C20.2772 26.8344 19.9126 26.9516 19.6456 27.2186C19.294 27.5702 18.8707 27.7395 18.4279 27.9153C18.0502 28.0651 17.6856 28.267 17.3274 28.4558C16.9888 28.6316 16.8456 28.9572 16.7349 29.3023C16.6828 29.4586 16.6242 29.6214 16.533 29.7516C16.3637 30.0056 16.1098 30.0381 15.8623 29.8623C15.7581 29.7907 15.6735 29.6995 15.5823 29.6149C15.2437 29.2828 14.9051 29.2372 14.4819 29.4521C14.3386 29.5237 14.1693 29.5628 14.013 29.6149C14 29.6149 13.987 29.6149 13.974 29.6214C13.7981 29.6865 13.4335 30.2986 13.4726 30.4809C13.5051 30.6502 13.5507 30.8195 13.6028 30.9823C13.6874 31.2428 13.5898 31.4837 13.414 31.6791C13.2316 31.8809 13.1079 32.1349 12.9842 32.3758C12.9516 32.4409 13.0428 32.5581 13.0493 32.6493C13.0493 32.747 13.0493 32.9033 12.9842 32.9358C12.4698 33.2549 12.1767 33.7758 11.8316 34.2447C11.6623 34.4726 11.5321 34.6419 11.1935 34.6744C10.8028 34.7135 10.4121 34.8763 10.0474 35.0456C9.05768 35.4949 8.02884 35.8009 6.94791 35.9116C6.51814 35.9572 6.16651 36.1005 5.82791 36.3479C5.69117 36.4456 5.46977 36.4781 5.29396 36.4651C4.82512 36.4326 4.35628 36.374 3.89396 36.2958C3.33396 36.2047 2.76745 36.1135 2.25954 35.827C1.90791 35.6251 1.54977 35.4298 1.19814 35.2344C1.15256 35.2084 1.09396 35.1888 1.04838 35.1693C0.859539 35.0716 0.66419 34.9805 0.481864 34.8698C0.364655 34.7981 0.240934 34.7265 0.149771 34.6223C0.0651199 34.5247 -0.0195312 34.3879 -0.0195312 34.2772C-0.0195312 34.186 0.0976781 34.0753 0.188841 34.0037C0.253957 33.9516 0.358143 33.9321 0.449306 33.9321C1.20465 33.9451 1.94047 33.7758 2.68279 33.6651C3.32745 33.5674 3.9721 33.5609 4.61675 33.6781C4.81861 33.7107 4.95535 33.6456 5.07256 33.4958C5.13768 33.4177 5.20931 33.333 5.2614 33.2484C5.39814 32.9944 5.61954 32.9684 5.86698 33.014C6.00372 33.04 6.14047 33.0726 6.27721 33.0921C6.51814 33.1312 6.73303 33.0986 6.95442 32.9749C7.13024 32.8772 7.35163 32.8447 7.55349 32.8251C7.82698 32.7991 8.04838 32.7079 8.15256 32.4474C8.28279 32.1349 8.52372 31.9786 8.84279 31.9135C8.94698 31.894 9.04465 31.8288 9.13582 31.7637C9.32465 31.6335 9.52652 31.5163 9.67628 31.347C9.91721 31.0735 10.1321 30.774 10.347 30.4744C10.5684 30.1619 10.7637 29.8363 10.9786 29.5237C11.1023 29.3479 11.2586 29.1916 11.3563 28.9963C11.6819 28.3451 12.2288 27.9609 12.854 27.6614C13.2642 27.466 13.6744 27.2837 14.0977 27.1274C14.5405 26.9647 14.8465 26.6326 15.1656 26.3135C15.2112 26.2679 15.2567 26.1702 15.2437 26.1116C15.1981 25.9423 15.2763 25.8902 15.4065 25.8056C15.6735 25.6363 15.9209 25.4344 16.1684 25.2456C16.2074 25.213 16.2465 25.1609 16.2595 25.1088C16.3442 24.7312 16.5981 24.4772 16.8912 24.2558C16.9823 24.1842 17.054 24.1191 16.9563 24.0019C16.8781 23.9042 16.8065 23.7935 16.6567 23.9042C16.5851 23.9563 16.5005 23.9953 16.4093 24.0084C16.3507 24.0214 16.2465 24.0019 16.2335 23.9628C16.214 23.9172 16.2335 23.8195 16.2726 23.774C16.4484 23.5721 16.6437 23.3833 16.8261 23.1944C16.8716 23.1488 16.8977 23.0967 16.9433 23.0512C17.0409 22.947 17.1451 22.8493 17.2428 22.7516C17.36 22.6344 17.4837 22.5107 17.6009 22.3935C17.6791 22.3153 17.7312 22.2047 17.8158 22.146C18.3628 21.7488 18.8772 21.3191 19.5088 21.0521C19.8409 20.9154 20.1274 20.6874 20.4335 20.4856C20.4856 20.4465 20.5442 20.3553 20.5377 20.2967C20.4986 19.893 20.7526 19.587 20.8763 19.2419C21.0261 18.8447 21.2995 18.5647 21.6512 18.3367C21.9116 18.174 22.1721 18.0112 22.4195 17.8353C22.5758 17.7247 22.7126 17.5814 22.8688 17.4642C23.0186 17.3535 23.1814 17.2623 23.3312 17.1581C23.4093 17.106 23.4874 17.0409 23.5591 16.9823C23.6958 16.8651 23.8326 16.7479 23.9563 16.6242C24.0279 16.5526 24.1061 16.4679 24.1321 16.3702C24.2167 16.0186 24.3991 15.7191 24.5619 15.4065C24.653 15.2437 24.6921 15.0419 24.7116 14.853C24.7442 14.5665 24.7637 14.293 25.1088 14.1953C25.1805 14.1758 25.2391 14.0716 25.2847 13.9935C25.3954 13.7981 25.4865 13.5963 25.5842 13.4009C25.5972 13.3684 25.5972 13.3228 25.6233 13.3033C25.9749 13.0233 25.9619 12.587 26.0595 12.2093C26.1572 11.8381 26.3005 11.506 26.5805 11.2326C27.0558 10.7702 27.4335 10.2298 27.6288 9.59814C27.733 9.27256 27.9349 8.96651 27.8763 8.60186C27.8763 8.5693 27.9023 8.5107 27.9284 8.49767C28.1693 8.38698 28.2474 8.16558 28.3321 7.94419C28.3516 7.88558 28.3907 7.83349 28.4167 7.79442C28.3386 7.66419 28.2149 7.54698 28.2214 7.42977C28.2214 7.34512 28.4102 7.28 28.5079 7.19535C28.6186 7.09767 28.7098 6.98698 28.8205 6.8893C28.9181 6.80465 29.0354 6.74605 29.1265 6.65488C29.1916 6.59628 29.2502 6.51814 29.2828 6.44C29.3479 6.27721 29.3479 6.06233 29.4521 5.9386C29.7647 5.56093 29.8233 5.11163 29.8754 4.65581C29.9144 4.36279 29.9665 4.06326 30.0056 3.77023C30.0186 3.6986 30.0186 3.61395 29.9926 3.54233C29.9079 3.33395 29.9926 3.08 29.8167 2.89767C29.8037 2.87814 29.8167 2.83256 29.8233 2.8C29.8819 2.59163 29.9405 2.37674 30.0056 2.16837C30.0772 1.94698 30.2205 1.7907 30.4354 1.71256C30.6698 1.62791 30.8065 1.45209 30.9563 1.26326C31.2949 0.846512 31.6791 0.455814 32.0567 0.0716282C32.1284 2.70084e-07 32.2847 -0.0325579 32.3823 -0.013023C32.6884 0.0455817 32.9879 0.123721 33.2809 0.234419C33.4047 0.28 33.5023 0.416744 33.5805 0.527442C33.6781 0.670698 33.7628 0.794419 33.9451 0.846512C34.1926 0.924651 34.2316 1.08093 34.0949 1.29581C33.8865 1.61488 33.6847 1.93395 33.4698 2.26605C33.6651 2.37023 33.6912 2.52651 33.5479 2.71535C33.4698 2.82605 33.5479 2.87814 33.626 2.93023C33.8019 3.06047 33.7954 3.09954 33.6065 3.21674C33.5284 3.26233 33.4633 3.35349 33.4307 3.44465C33.3005 3.78977 33.1833 4.13488 33.066 4.48C33.04 4.55814 33.04 4.66884 33.0726 4.73395C33.2028 4.96837 33.1442 5.16372 32.9944 5.35256C32.9358 5.4307 32.8772 5.50884 32.8186 5.58698C32.7274 5.7107 32.6819 5.84744 32.786 5.9907C32.7926 6.00372 32.7991 6.01674 32.7991 6.02977C32.8316 6.31628 32.8707 6.59628 32.8902 6.88279C32.8902 6.94791 32.8251 7.03907 32.7665 7.09116C32.5712 7.25395 32.5126 7.45581 32.5581 7.69023C32.6037 7.92465 32.5386 8.12 32.3628 8.26977C32.2651 8.34791 32.2521 8.42605 32.2912 8.53674C32.3498 8.69954 32.3628 8.84279 32.1544 8.92744C32.0047 8.99256 32.0372 9.14233 32.0502 9.27907C32.0633 9.43535 32.1023 9.59814 32.0828 9.75442C32.0502 10.0019 31.8809 10.1777 31.6726 10.3079C31.4056 10.4707 31.2949 10.7051 31.3535 11.0177C31.3535 11.0372 31.3665 11.0567 31.36 11.0828C31.2884 11.5712 31.2037 12.066 31.1386 12.5544C31.1256 12.6586 31.1516 12.7693 31.1451 12.8735C31.1321 13.0102 31.1061 13.147 31.0865 13.2837C31.0735 13.414 31.0279 13.5507 31.0605 13.6744C31.1256 13.9284 31.2233 14.1758 31.3144 14.4233C31.4056 14.6772 31.3991 14.9051 31.1907 15.1135C31.1061 15.1981 31.054 15.3414 31.0279 15.4651C30.9628 15.7581 30.8065 15.986 30.5981 16.1944C30.4614 16.3312 30.3247 16.4744 30.1684 16.5916C29.7516 16.8977 29.5758 17.373 29.3219 17.7898C29.2828 17.8484 29.3219 17.9591 29.3349 18.0437C29.3414 18.1479 29.374 18.2586 29.3544 18.3563C29.3219 18.5191 29.1786 18.6754 29.3609 18.8316C29.374 18.8447 29.374 18.8707 29.3674 18.8902C29.3414 19.1637 28.9181 19.4763 28.6577 19.4177C28.4949 19.3786 28.3386 19.3265 28.1823 19.2744C28.0326 19.2223 28.013 19.0921 28.0977 18.9749C28.254 18.76 28.3972 18.5386 28.5535 18.3107L28.6056 18.3302ZM21.7488 20.9674C21.7488 20.9674 21.7033 20.9479 21.6837 20.9349C21.5861 21.0781 21.5014 21.2344 21.3972 21.3712C21.28 21.5209 21.1628 21.7228 21.0065 21.7749C20.6679 21.8921 20.3423 22.0028 20.0949 22.2763C20.0688 22.3023 20.0167 22.3023 19.9777 22.3154C19.6326 22.4716 19.2809 22.6149 18.9488 22.7907C18.8056 22.8688 18.7144 23.0251 18.5191 22.9209C18.4865 22.9014 18.4149 22.9665 18.3563 22.9926C18.1544 23.0772 17.9526 23.1684 17.7442 23.2335C17.5749 23.2856 17.4512 23.4354 17.4837 23.5981C17.5033 23.7088 17.4837 23.8195 17.4837 23.9563C17.5098 23.9563 17.5684 23.9563 17.6205 23.9367C18.0893 23.7219 18.5972 23.6633 19.0986 23.6177C19.32 23.5981 19.5414 23.5851 19.7172 23.4158C20.0298 23.1228 20.3488 22.8363 20.6679 22.5433C20.8437 22.3805 21.0261 22.2437 21.293 22.2567C21.4884 22.2633 21.5926 22.133 21.6121 21.9442C21.6316 21.7488 21.6512 21.56 21.6772 21.3647C21.6967 21.2344 21.7163 21.0977 21.7423 20.9674H21.7488Z" fill="#62CAE3"/>
<path d="M15.3935 32.8121C14.6772 33.346 14.1498 33.9842 13.7395 34.733C12.9256 36.2307 12.6977 37.826 12.8019 39.4865C13.6679 38.7898 14.6902 38.2037 15.8949 37.7154C17.093 37.3051 17.7572 37.1358 17.8419 37.1098C17.8809 37.1098 17.9135 37.0967 17.9526 37.0902C17.9591 36.9274 17.9786 36.7647 17.9981 36.6019C18.2781 34.6614 19.906 33.2874 21.8986 33.2614C21.9767 33.2614 22.0614 33.2288 22.1265 33.1833C22.5628 32.8447 22.986 32.4995 23.4484 32.1349C21.4819 30.5591 19.2614 30.1554 16.8326 30.9042C14.5209 31.614 12.7237 33.8019 12.5023 35.9898C13.2447 34.2707 14.6121 33.0335 15.4 32.8186L15.3935 32.8121Z" fill="url(#paint2_linear_2008_1555)"/>
</g>
<defs>
<linearGradient id="paint0_linear_2008_1555" x1="12.8035" y1="39.1753" x2="20.2131" y2="21.1784" gradientUnits="userSpaceOnUse">
<stop stop-color="#856929"/>
<stop offset="0.17" stop-color="#F2E28F"/>
<stop offset="0.47" stop-color="#AE954A"/>
<stop offset="0.68" stop-color="#D3BF6D"/>
<stop offset="0.8" stop-color="#A58735"/>
<stop offset="1" stop-color="#C9AD58"/>
</linearGradient>
<linearGradient id="paint1_linear_2008_1555" x1="19.9179" y1="70.6348" x2="74.0357" y2="45.4878" gradientUnits="userSpaceOnUse">
<stop stop-color="#856929"/>
<stop offset="0.17" stop-color="#F2E28F"/>
<stop offset="0.47" stop-color="#AE954A"/>
<stop offset="0.68" stop-color="#D3BF6D"/>
<stop offset="0.8" stop-color="#A58735"/>
<stop offset="1" stop-color="#C9AD58"/>
</linearGradient>
<linearGradient id="paint2_linear_2008_1555" x1="6.73014" y1="43.0735" x2="23.8137" y2="24.4307" gradientUnits="userSpaceOnUse">
<stop stop-color="#856929"/>
<stop offset="0.17" stop-color="#F2E28F"/>
<stop offset="0.47" stop-color="#AE954A"/>
<stop offset="0.68" stop-color="#D3BF6D"/>
<stop offset="0.8" stop-color="#A58735"/>
<stop offset="1" stop-color="#C9AD58"/>
</linearGradient>
<clipPath id="clip0_2008_1555">
<rect width="56" height="56" fill="white"/>
</clipPath>
</defs>
</svg>
