<svg width="20" height="21" viewBox="0 0 20 21" fill="none" xmlns="http://www.w3.org/2000/svg">
<mask id="mask0_2001_55030" style="mask-type:alpha" maskUnits="userSpaceOnUse" x="0" y="0" width="20" height="21">
<circle cx="10" cy="10.5" r="10" fill="#D9D9D9"/>
</mask>
<g mask="url(#mask0_2001_55030)">
<mask id="mask1_2001_55030" style="mask-type:luminance" maskUnits="userSpaceOnUse" x="-4" y="0" width="28" height="21">
<path d="M-3.71143 0.293804H23.6305V20.8002H-3.71143V0.293804Z" fill="white"/>
</mask>
<g mask="url(#mask1_2001_55030)">
<path fill-rule="evenodd" clip-rule="evenodd" d="M-3.71143 0.293804V20.8002H23.6305V0.293804H-3.71143Z" fill="#F7FCFF"/>
<mask id="mask2_2001_55030" style="mask-type:luminance" maskUnits="userSpaceOnUse" x="-4" y="0" width="28" height="21">
<path fill-rule="evenodd" clip-rule="evenodd" d="M-3.71143 0.293804V20.8002H23.6305V0.293804H-3.71143Z" fill="white"/>
</mask>
<g mask="url(#mask2_2001_55030)">
<path fill-rule="evenodd" clip-rule="evenodd" d="M-3.71143 0.293804V20.8002H23.6305V0.293804H-3.71143Z" fill="#3D58DB"/>
<path fill-rule="evenodd" clip-rule="evenodd" d="M9.147 3.31562L8.95518 4.43409L9.95957 3.90602L10.964 4.43409L10.7722 3.31562L11.5848 2.44192H10.4618L9.95957 1.34272L9.45742 2.44192H8.33435L9.147 3.31562ZM9.147 18.1562L8.95518 19.2747L9.95957 18.7466L10.964 19.2747L10.7722 18.1562L11.5848 17.2825H10.4618L9.95957 16.1833L9.45742 17.2825H8.33435L9.147 18.1562ZM1.13567 11.9296L1.32751 10.8111L0.514893 9.93745H1.6379L2.14012 8.83821L2.64235 9.93745H3.76536L2.95274 10.8111L3.14457 11.9296L2.14012 11.4015L1.13567 11.9296ZM2.89792 14.3494L2.70609 15.4679L3.71054 14.9398L4.71499 15.4679L4.52315 14.3494L5.3358 13.4757H4.21276L3.71054 12.3765L3.20831 13.4757H2.0853L2.89792 14.3494ZM16.2183 14.9398L15.2138 15.4679L15.4057 14.3494L14.593 13.4757H15.7161L16.2183 12.3765L16.7205 13.4757H17.8435L17.0309 14.3494L17.2227 15.4679L16.2183 14.9398ZM2.89792 7.18075L2.70609 8.29921L3.71054 7.77114L4.71499 8.29921L4.52315 7.18075L5.3358 6.30704H4.21276L3.71054 5.20784L3.20831 6.30704H2.0853L2.89792 7.18075ZM16.2183 7.77114L15.2138 8.29921L15.4057 7.18075L14.593 6.30704H15.7161L16.2183 5.20784L16.7205 6.30704H17.8435L17.0309 7.18075L17.2227 8.29921L16.2183 7.77114ZM5.39364 17.1962L5.20182 18.3147L6.20621 17.7866L7.21068 18.3147L7.01886 17.1962L7.83152 16.3226H6.70845L6.20621 15.2233L5.70406 16.3226H4.58101L5.39364 17.1962ZM12.7996 18.3147L12.9915 17.1962L12.1788 16.3226H13.3019L13.8041 15.2233L14.3063 16.3226H15.4293L14.6167 17.1962L14.8085 18.3147L13.8041 17.7866L12.7996 18.3147ZM5.20182 5.40692L6.20621 4.87886L7.21068 5.40692L7.01886 4.28845L7.83152 3.41476H6.70845L6.20621 2.31555L5.70406 3.41476H4.58101L5.39364 4.28845L5.20182 5.40692ZM12.7996 5.40692L12.9915 4.28845L12.1788 3.41476H13.3019L13.8041 2.31555L14.3063 3.41476H15.4293L14.6167 4.28845L14.8085 5.40692L13.8041 4.87886L12.7996 5.40692ZM16.9011 10.7101L16.7093 11.8286L17.7137 11.3005L18.7182 11.8286L18.5264 10.7101L19.339 9.83637H18.216L17.7137 8.73718L17.2115 9.83637H16.0885L16.9011 10.7101Z" fill="#FFD018"/>
</g>
</g>
</g>
</svg>
