<svg width="253" height="86" viewBox="0 0 253 86" fill="none" xmlns="http://www.w3.org/2000/svg">
<g clip-path="url(#clip0_30_1222)">
<path d="M98.2001 14.6299H110.58V44.5699H106.2V38.5799C104.5 38.6099 103.06 39.2099 101.89 40.3799C100.71 41.5499 100.12 42.9499 100.12 44.5699H95.6101L99.9401 18.8199H97.6201L98.2001 14.6299ZM101.69 35.4199C103.12 34.7599 104.62 34.4199 106.2 34.3899V18.8199H104.41L101.68 35.4099L101.69 35.4199Z" fill="white"/>
<path d="M125.73 14.6299V23.6499C125.73 25.0199 125.28 26.2299 124.39 27.2899C125.28 28.3499 125.73 29.5599 125.73 30.9299V38.8399C125.73 40.4399 125.15 41.7899 123.99 42.8999C122.83 44.0099 121.41 44.5699 119.74 44.5699H113.13V34.8599H117.51V40.3799H119.74C120.19 40.3799 120.57 40.2299 120.88 39.9299C121.19 39.6299 121.35 39.2699 121.35 38.8399V30.9299C121.35 30.6499 121.28 30.3899 121.13 30.1599C120.98 29.9299 120.79 29.7499 120.55 29.5999C120.31 29.4599 120.04 29.3899 119.75 29.3899H117.43V25.1999H119.75C120.2 25.1999 120.58 25.0499 120.89 24.7499C121.2 24.4499 121.36 24.0899 121.36 23.6599V18.8299H117.52V22.8899H113.14V14.6399H125.74L125.73 14.6299Z" fill="white"/>
<path d="M138.96 14.6299H143.34V44.5699H138.96V36.5699L134.54 42.0899V44.5699H130.16V18.8199H128.24V14.6299H134.54V35.9699L138.96 30.4499V14.6299Z" fill="white"/>
<path d="M156.56 14.6299H160.94V44.5699H156.56V36.5699L152.14 42.0899V44.5699H147.76V18.8199H145.84V14.6299H152.14V35.9699L156.56 30.4499V14.6299ZM157.28 7.3999V11.5099L151.43 13.4299V9.3199L157.28 7.3999Z" fill="white"/>
<path d="M174.12 14.6299H178.5V44.5699H174.12V28.9999L169.7 28.1899V44.5699H165.32V18.8699H163.44V14.6399H169.7V24.1299L174.12 24.9399V14.6299Z" fill="white"/>
<path d="M201.07 14.6299V23.6499C201.07 25.0199 200.62 26.2299 199.73 27.2899C200.62 28.3499 201.07 29.5599 201.07 30.9299V38.8399C201.07 40.4399 200.49 41.7899 199.33 42.8999C198.17 44.0099 196.75 44.5699 195.08 44.5699H188.47V34.8599H192.85V40.3799H195.08C195.53 40.3799 195.91 40.2299 196.22 39.9299C196.53 39.6299 196.69 39.2699 196.69 38.8399V30.9299C196.69 30.6499 196.62 30.3899 196.47 30.1599C196.32 29.9299 196.13 29.7499 195.89 29.5999C195.65 29.4599 195.38 29.3899 195.09 29.3899H192.77V25.1999H195.09C195.54 25.1999 195.92 25.0499 196.23 24.7499C196.54 24.4499 196.7 24.0899 196.7 23.6599V18.8299H192.86V22.8899H188.48V14.6399H201.08L201.07 14.6299Z" fill="white"/>
<path d="M213.84 14.6299H218.22L216.21 32.3799C216.09 33.4899 215.73 34.4799 215.12 35.3499C214.51 36.2199 213.73 36.8799 212.77 37.3399V44.5699H208.39V37.3399C207.44 36.8799 206.65 36.2199 206.04 35.3499C205.43 34.4799 205.06 33.4899 204.95 32.3799L202.94 14.6299H207.36L209.33 31.9099C209.36 32.3399 209.49 32.7099 209.71 33.0199C209.93 33.3299 210.22 33.5299 210.58 33.6199C211.32 33.4499 211.76 32.8799 211.88 31.9099L213.85 14.6299H213.84Z" fill="white"/>
<path d="M220.14 14.6299H236.32L233.77 33.0599C233.53 34.7099 232.87 36.0299 231.78 37.0199C230.69 37.9999 229.37 38.4999 227.83 38.4999H226.4V44.5699H222.02V18.8199H220.14V14.6299ZM229.44 32.4599L231.32 18.8199H226.4V34.2999H227.83C228.72 34.2999 229.26 33.6899 229.44 32.4599Z" fill="white"/>
<path d="M252.41 44.5699H247.99L245.35 35.7999C243.65 40.1099 242.8 43.0299 242.8 44.5699H238.42C238.42 43.4899 238.67 42.0599 239.18 40.2899C239.69 38.5199 240.2 36.9699 240.72 35.6299C241.24 34.2899 242.02 32.3499 243.07 29.8099C243.16 29.5499 243.25 29.3299 243.34 29.1299L240.21 18.8199H238.2V14.6299H243.38L245.84 22.7999C247.21 19.0399 247.9 16.3099 247.9 14.6299H252.32C252.32 16.3099 251.93 18.3499 251.16 20.7499C250.39 23.1499 249.3 26.0799 247.9 29.5599L252.41 44.5699Z" fill="white"/>
<path d="M107.73 61.89H103.83V55.21H100.45V73.8701C100.45 74.2401 100.58 74.57 100.85 74.84C101.11 75.12 101.45 75.2601 101.84 75.2601H103.83V69.0101H107.73V79.1501H101.84C100.38 79.1501 99.1299 78.63 98.0999 77.6C97.0699 76.57 96.5499 75.32 96.5499 73.8601V55.2001H94.8799V51.3H107.73V61.8801V61.89Z" fill="white"/>
<path d="M121.18 58.98H117.28V55.2001H113.86V61.3301C114.34 61.2001 114.81 61.1301 115.29 61.1301H119.23V65.03H115.29C114.89 65.03 114.55 65.17 114.28 65.45C114 65.73 113.86 66.07 113.86 66.46V73.82C113.86 74.22 114 74.5601 114.28 74.8301C114.56 75.1101 114.9 75.25 115.29 75.25H117.28V70.1201H121.18V79.1501H115.29C113.83 79.1501 112.58 78.6301 111.53 77.5801C110.48 76.5301 109.96 75.28 109.96 73.82V51.3H121.18V58.98Z" fill="white"/>
<path d="M123.45 51.3H137.85L135.58 68.45C135.37 69.99 134.78 71.21 133.81 72.13C132.84 73.05 131.67 73.5 130.29 73.5H129.02V79.1501H125.12V55.2001H123.45V51.3ZM131.72 67.89L133.39 55.2001H129.01V69.6H130.28C131.08 69.6 131.55 69.03 131.71 67.89H131.72Z" fill="white"/>
<path d="M152.41 75.49H154.12V84.6H150.22V79.1501H142.74V82.85H138.84V75.49H140.51L143.81 55.2001H142.26V51.3H152.4V75.49H152.41ZM144.57 75.49H148.51V55.2001H147.75L144.57 75.49Z" fill="white"/>
<path d="M169.07 75.45H171.06V84.6H167.12V79.1501H157.33V55.2001H155.66V51.3H161.27V75.49H165.13V51.3H169.07V75.45Z" fill="white"/>
<path d="M183.39 58.98H179.49V55.2001H176.07V61.3301C176.55 61.2001 177.02 61.1301 177.5 61.1301H181.44V65.03H177.5C177.1 65.03 176.76 65.17 176.49 65.45C176.21 65.73 176.07 66.07 176.07 66.46V73.82C176.07 74.22 176.21 74.5601 176.49 74.8301C176.77 75.1101 177.11 75.25 177.5 75.25H179.49V70.1201H183.39V79.1501H177.5C176.04 79.1501 174.79 78.6301 173.74 77.5801C172.69 76.5301 172.17 75.28 172.17 73.82V51.3H183.39V58.98Z" fill="white"/>
<path d="M196.08 51.3H207.1V79.1501H203.2V73.5801C201.69 73.6101 200.41 74.16 199.36 75.25C198.31 76.34 197.79 77.6401 197.79 79.1501H193.77L197.63 55.2001H195.56L196.08 51.3ZM199.19 70.64C200.46 70.03 201.8 69.7101 203.21 69.6901V55.21H201.62L199.19 70.6501V70.64Z" fill="white"/>
<path d="M220.59 51.3V59.69C220.59 60.96 220.19 62.09 219.4 63.07C220.2 64.05 220.59 65.18 220.59 66.45V73.81C220.59 75.3 220.07 76.55 219.04 77.59C218.01 78.62 216.75 79.14 215.26 79.14H209.37V70.11H213.27V75.24H215.26C215.66 75.24 216 75.1 216.27 74.82C216.55 74.54 216.69 74.2 216.69 73.81V66.45C216.69 66.18 216.62 65.95 216.49 65.73C216.36 65.52 216.19 65.35 215.97 65.21C215.76 65.08 215.52 65.01 215.25 65.01H213.18V61.11H215.25C215.65 61.11 215.99 60.97 216.26 60.69C216.53 60.41 216.68 60.07 216.68 59.68V55.18H213.26V58.96H209.36V51.28H220.58L220.59 51.3Z" fill="white"/>
<path d="M232.36 51.3H236.26V79.1501H232.36V71.71L228.42 76.84V79.1501H224.52V55.2001H222.81V51.3H228.42V71.1501L232.36 66.02V51.3Z" fill="white"/>
<path d="M248.04 51.3H251.94V79.1501H248.04V71.71L244.1 76.84V79.1501H240.2V55.2001H238.49V51.3H244.1V71.1501L248.04 66.02V51.3Z" fill="white"/>
<path d="M77.62 23.9199C70.87 15.4999 61.4999 10.5699 51.6899 9.16992C51.6599 10.3099 51.5799 11.4599 51.3499 12.5799C51.3099 12.7799 51.25 12.9799 51.2 13.1799C82.86 17.9999 94.7999 56.4099 71.9599 79.1599C88.8299 65.9299 91.0099 40.5299 77.61 23.9299L77.62 23.9199Z" fill="white"/>
<path d="M43.02 8.84008C33.48 9.51008 24.11 13.5101 16.85 20.9801C15.75 22.2601 14.01 24.0401 13.13 25.4601C12.07 26.8201 10.93 28.8701 10.06 30.3901C9.39997 31.9301 8.21997 34.1201 7.80997 35.7301C7.67997 36.1501 7.21997 37.3901 7.10997 37.7801C3.97997 48.9801 5.88997 61.7601 12.84 71.0601L13 70.9601C9.37997 64.4701 7.55997 57.1301 7.83997 49.8901C8.15997 42.6601 10.35 35.5901 14.35 29.6901C20.38 20.5801 30.06 14.6801 40.62 13.1501C41.31 11.6701 42.26 10.3001 43.01 8.83008L43.02 8.84008Z" fill="white"/>
<path d="M36.2901 83.1901C35.8301 83.0301 35.5201 82.6901 35.4801 82.2201C35.4101 81.5601 35.3901 80.8901 35.4401 80.2301C35.4901 79.6001 35.6701 78.9801 35.8001 78.3201C33.5101 78.8401 31.1901 78.9201 28.8401 78.8301C28.8601 78.9401 28.8601 78.9901 28.8801 79.0401C29.4701 80.6601 30.2301 82.2001 31.3201 83.5601C31.8801 84.2601 32.5101 84.9201 33.4401 85.0901C34.0901 85.2101 34.7601 85.1801 35.4301 85.1901C36.2601 85.2001 37.0801 85.1901 37.9601 85.1901C37.6201 84.3001 37.2601 83.5201 36.3001 83.1901H36.2901Z" fill="white"/>
<path d="M34.26 56.5199C34.81 56.5499 35.37 56.5899 35.92 56.6399C37.18 56.7499 38.48 56.8499 39.8 56.7199C41.56 56.5299 42.9 56.0999 44 55.3399C44.68 54.8699 45.36 54.3799 46.01 53.9099L46.46 53.5899C49.05 51.7299 51.57 50.6199 54.17 50.2199C54.41 50.1799 54.61 50.0099 54.73 49.8299C54.66 49.8299 54.59 49.8499 54.51 49.8499C52.45 49.9499 50.44 49.6899 48.43 49.2399C47.06 48.9299 45.68 48.6499 44.29 48.4599C42.92 48.2699 41.55 48.3299 40.18 48.6099C37.17 49.2299 34.81 50.7999 33.11 53.2999C32.43 54.2999 32 55.3699 31.77 56.4899C32.52 56.4699 33.34 56.4899 34.27 56.5199H34.26Z" fill="white"/>
<path d="M72.76 37.58C73.38 37.8 73.96 38 74.6 38.23C73.08 36.43 71.26 35.14 69.23 34.12C69.83 34.17 70.43 34.22 71.04 34.27C70.04 33.12 66.43 31.62 63.53 31.1C63.98 31 64.44 30.89 64.95 30.78C63.66 30.41 62.4 30.18 61.12 30.08C59.63 29.96 58.14 29.96 56.69 30.32C56.18 30.45 55.86 30.39 55.49 30.01C54.8 29.29 53.59 28.91 52.7 29.02C53.22 29.63 53.68 30.28 53.92 30.94C53.24 31.4 52.6 31.81 52 32.27C51.33 32.78 50.64 33.26 49.78 33.38C49.5 33.42 49.21 33.42 48.87 33.44C49.81 34.31 50.89 34.49 52.1 34.35C52.02 34.48 51.96 34.57 51.9 34.66C50.79 36.27 49.68 37.87 48.58 39.48C47.81 40.6 47.05 41.72 46.29 42.84C46.22 42.95 46.15 43.11 46.18 43.22C46.32 43.82 46.5 44.41 46.66 45C46.75 45.33 46.98 45.5 47.3 45.59C47.63 45.68 47.96 45.75 48.28 45.84C48.37 45.87 48.45 45.95 48.54 46.01C48.68 46.09 48.81 46.23 48.95 46.24C49.55 46.27 50.1 46.05 50.65 45.81C50.96 45.67 51.15 45.46 51.24 45.13C51.38 44.6 51.71 44.21 52.21 43.97C52.71 43.73 53.21 43.48 53.72 43.25C54.69 42.81 55.67 42.42 56.77 42.33C57.72 42.25 58.56 41.85 59.21 41.13C60.11 40.13 60.44 38.94 60.33 37.62C60.29 37.18 60.2 36.74 60.12 36.26C60.17 36.33 60.2 36.38 60.22 36.42C60.32 36.68 60.4 36.95 60.51 37.21C60.56 37.33 60.62 37.48 60.72 37.56C62.38 38.79 63.66 40.34 64.53 42.19C65.71 44.69 66.1 47.27 65.22 49.95C65.07 50.41 64.85 50.84 64.66 51.29C64.91 49.16 64.84 47.09 64.24 45.05C63.59 42.86 61.92 40.2 60.96 39.8C61.47 40.95 61.85 42.12 61.89 43.38C61.95 45.7 61 47.5 58.98 48.71C58.41 49.05 57.82 49.28 57.21 49.45C57.45 49.67 57.64 49.98 57.76 50.39L57.83 50.64L58.1 50.66C59.01 50.72 59.9 50.98 60.82 51.47C61.88 52.04 62.85 52.64 63.18 53.86C63.26 54.17 63.61 54.32 63.72 54.36C64.67 54.71 65.92 55.17 67.21 55.62C67.2766 55.64 67.3167 55.6766 67.33 55.73C67.58 56.74 67.42 57.75 66.86 58.56C66.32 59.35 65.47 59.87 64.47 60.01C62.01 60.37 60.23 61.73 59.17 64.08C58.57 65.41 58.46 66.8 58.43 67.87C58.41 68.6 58.43 69.35 58.47 70.13C58.62 70.36 58.71 70.59 58.71 70.82C58.69 71.52 58.71 72.22 58.76 72.91C58.79 73.15 58.82 73.38 58.86 73.63C59.31 76.46 60.07 78.94 61.21 81.19C61.29 81.35 61.38 81.5 61.47 81.65C61.48 80.45 61.49 79.25 61.53 78.05C61.55 77.41 61.7 76.79 61.99 76.21C62.09 76 62.16 75.76 62.18 75.53C62.3 74.17 62.34 72.79 62.52 71.44C62.73 69.86 63.05 68.3 63.31 66.73C63.35 66.49 63.48 66.43 63.71 66.42C65.67 66.31 67.52 65.83 69.27 64.96C69.71 64.74 70.13 64.48 70.56 64.24C69.03 65.91 67.11 66.88 64.93 67.39C65.05 68.49 65.18 69.54 65.28 70.59C65.46 72.63 65.68 74.67 65.77 76.72C65.86 78.61 65.81 80.5 65.81 82.39C65.81 82.67 65.85 82.87 66.09 83.06C66.3 83.22 66.46 83.46 66.6 83.68C66.89 84.14 66.91 84.66 66.93 85.18C66.95 85.63 67.03 85.7 67.48 85.7C68.6 85.7 69.71 85.72 70.83 85.73C70.88 85.73 70.93 85.72 71.01 85.7C70.43 84.94 69.89 84.22 69.33 83.5C68.87 82.9 68.43 82.25 68.44 81.49C68.46 79.94 68.54 78.38 68.67 76.84C68.72 76.23 69.01 75.64 69.11 75.03C69.21 74.41 69.14 73.77 69.24 73.16C69.61 70.91 70.18 68.7 70.87 66.52C71.26 65.29 71.66 64.06 72.47 63C73.64 61.47 74.2 59.7 74.39 57.82C74.53 56.41 74.39 55.02 74.11 53.64C74.04 53.27 73.93 52.85 74.03 52.51C74.32 51.5 74.52 50.47 74.58 49.43C74.69 47.59 74.52 45.76 73.91 44.01C72.57 40.08 70.08 37.04 66.47 34.92C64.83 33.96 63.06 33.35 61.15 33.26C59.09 33.16 57.17 33.63 55.48 34.85C55.48 34.85 55.47 34.83 55.48 34.83C56.49 33.35 57.93 32.55 59.68 32.29C61.28 32.05 62.85 32.24 64.36 32.78C69.35 34.57 72.81 37.92 74.66 42.84C75.04 43.86 75.26 44.94 75.53 45.89C76.02 43.92 75.76 40.55 72.82 37.65L72.76 37.58ZM73.26 50.83C73.3 48.51 72.91 46.26 72.26 44.04C73.34 46.2 73.8 48.44 73.26 50.83Z" fill="white"/>
<path d="M65.3499 55.96C65.2899 56.62 65.6099 57.02 66.1599 57.29C66.0699 57.65 65.8699 57.9 65.5199 57.99C64.5099 58.26 63.5299 58.08 62.5599 57.75C63.1499 56.24 62.8999 54.89 61.7499 53.8C60.6799 52.78 59.4099 52.88 58.0999 53.35C58.3099 53.1 58.5299 52.84 58.7999 52.65C59.0799 52.45 59.4099 52.32 59.7999 52.11C59.3699 51.93 58.9899 51.73 58.5899 51.62C58.1799 51.51 57.7499 51.48 57.3199 51.41C57.3099 51.3 57.2999 51.18 57.2899 51.07C57.1999 50.48 56.6999 49.97 56.1999 49.96C55.7699 49.96 55.2999 50.4 55.2399 50.99C55.1899 51.5 55.1999 52.02 55.2799 52.52C55.3399 52.95 55.5299 53.36 55.6699 53.79C54.7599 53.17 54.1699 52.37 54.1199 51.22C52.7399 51.46 51.5099 51.96 50.3699 52.82C50.9399 52.71 51.4399 52.62 51.9499 52.53C49.5399 53.69 47.7599 55.46 46.5699 57.83C46.7599 56.67 47.1799 55.6 47.8599 54.64C47.7299 54.68 47.6199 54.73 47.5199 54.79C46.8599 55.18 46.1999 55.55 45.5599 55.97C42.7199 57.85 39.5799 58.55 36.1999 58.35C34.0799 58.22 31.9599 58.1 29.8399 58.35C27.4099 58.65 25.0899 59.29 22.9499 60.48C18.3699 63.03 16.0099 66.92 15.8299 72.1C15.7299 74.95 16.0399 77.76 16.5899 80.56C16.8499 81.88 17.2399 83.15 18.0199 84.28C18.7399 85.33 19.6899 85.92 21.0399 85.88C22.6599 85.83 24.2899 85.88 25.9099 85.88C26.0099 85.88 26.1099 85.88 26.2199 85.88C26.0099 85.09 25.4099 84.46 24.5899 84.13C23.8299 83.82 23.4799 83.3 23.6099 82.5C23.6899 82 23.8199 81.48 24.0299 81.02C24.6399 79.66 25.6599 78.59 26.6799 77.53C27.9099 76.26 29.1599 75.01 30.0699 73.48C30.3499 73.01 30.5899 72.51 30.8499 72.03C30.4599 73.87 29.6499 75.51 28.4399 76.99C30.6299 77.22 34.9899 76.76 37.0599 76.08C37.1599 76.05 37.2799 75.94 37.3199 75.85C37.9999 74.33 38.9499 72.97 39.9599 71.65C40.1399 71.41 40.3199 71.17 40.4999 70.93C40.2299 71.67 39.8899 72.38 39.5799 73.09C38.5799 75.36 37.7099 77.65 38.0099 80.2C38.1999 81.85 38.7299 83.37 39.8099 84.66C40.5099 85.5 41.3699 85.94 42.5099 85.9C44.0599 85.85 45.6099 85.89 47.1499 85.9C47.2699 85.9 47.3899 85.9 47.5499 85.9C47.1599 84.93 46.5499 84.3 45.5499 84.09C44.7599 83.92 44.3099 83.43 44.1999 82.64C44.0599 81.66 44.2999 80.74 44.6399 79.84C45.2399 78.23 46.2799 76.89 47.3199 75.54C48.4999 74.02 49.6599 72.47 50.3999 70.68C50.7599 69.82 51.0299 68.92 51.3199 68.08C51.3199 71.26 50.0599 74.03 48.0599 76.52C48.1399 76.62 48.2099 76.7 48.2699 76.78C49.7399 78.43 51.1999 80.09 52.6899 81.71C53.7099 82.82 54.7599 83.91 55.8299 84.97C56.4799 85.62 57.2999 85.9 58.2299 85.89C60.0299 85.88 61.8399 85.89 63.6399 85.89C63.7399 85.89 63.8399 85.89 63.9899 85.87C63.5899 84.83 63.0299 84 61.9099 83.7C61.0899 83.48 60.5199 82.99 60.1099 82.27C58.9799 80.27 58.2399 78.12 57.8299 75.89C57.4899 74.02 57.2199 72.14 57.0799 70.25C56.9199 68.14 57.0499 66.04 57.8899 64.04C59.0899 61.19 61.0399 59.28 64.3499 59.07C65.9299 58.97 66.7899 57.72 66.6799 56.1C66.2499 56.06 65.8099 56.01 65.3599 55.96H65.3499Z" fill="white"/>
<path d="M43.93 28.15C43.4 27.81 43.38 27.66 43.75 27.25C43.97 27.01 43.84 26.78 43.71 26.58C43.66 26.51 43.46 26.52 43.34 26.54C42.22 26.68 41.81 27.63 41.35 28.44C41 29.06 40.75 29.73 40.23 30.25C40.13 30.35 40.06 30.49 39.97 30.61C40 30.63 40.03 30.65 40.03 30.64C40.58 30.07 41.36 30.08 42.04 29.83C42.34 29.72 42.58 29.83 42.73 30.08C43.24 30.91 43.44 31.8 43.21 32.75C43.16 32.96 42.95 33.15 42.77 33.3C42.54 33.49 42.28 33.64 42.03 33.8C41.89 33.89 41.75 34 41.6 34.08C41.05 34.38 40.89 34.35 40.45 33.85C40.14 34.1 39.82 34.34 39.52 34.6C39.18 34.91 38.87 35.25 38.52 35.55C38.24 35.78 37.94 35.98 37.62 36.15C37.39 36.27 37.41 36.38 37.54 36.54C37.85 36.96 37.88 37.22 37.52 37.59C36.85 38.3 36.31 39.18 35.27 39.46C35.16 39.49 35.04 39.61 35 39.72C34.77 40.36 34.18 40.58 33.69 40.94C33.11 41.37 32.45 41.47 31.74 41.33C31.14 41.21 30.58 41.39 30.17 41.8C29.63 42.34 28.98 42.6 28.3 42.87C27.72 43.1 27.16 43.41 26.61 43.7C26.09 43.97 25.87 44.47 25.7 45C25.62 45.24 25.53 45.49 25.39 45.69C25.13 46.08 24.74 46.13 24.36 45.86C24.2 45.75 24.07 45.61 23.93 45.48C23.41 44.97 22.89 44.9 22.24 45.23C22.02 45.34 21.76 45.4 21.52 45.48C21.5 45.48 21.48 45.48 21.46 45.49C21.19 45.59 20.63 46.53 20.69 46.81C20.74 47.07 20.81 47.33 20.89 47.58C21.02 47.98 20.87 48.35 20.6 48.65C20.32 48.96 20.13 49.35 19.94 49.72C19.89 49.82 20.03 50 20.04 50.14C20.04 50.29 20.04 50.53 19.94 50.58C19.15 51.07 18.7 51.87 18.17 52.59C17.91 52.94 17.71 53.2 17.19 53.25C16.59 53.31 15.99 53.56 15.43 53.82C13.91 54.51 12.33 54.98 10.67 55.15C10.01 55.22 9.46997 55.44 8.94997 55.82C8.73997 55.97 8.39997 56.02 8.12997 56C7.40997 55.95 6.68997 55.86 5.97997 55.74C5.11997 55.6 4.24997 55.46 3.46997 55.02C2.92997 54.71 2.37997 54.41 1.83997 54.11C1.76997 54.07 1.67997 54.04 1.60997 54.01C1.31997 53.86 1.01997 53.72 0.739971 53.55C0.559971 53.44 0.369971 53.33 0.229971 53.17C0.0999707 53.02 -0.0300293 52.81 -0.0300293 52.64C-0.0300293 52.5 0.149971 52.33 0.289971 52.22C0.389971 52.14 0.549971 52.11 0.689971 52.11C1.84997 52.13 2.97997 51.87 4.11997 51.7C5.10997 51.55 6.09997 51.54 7.08997 51.72C7.39997 51.77 7.60997 51.67 7.78997 51.44C7.88997 51.32 7.99997 51.19 8.07997 51.06C8.28997 50.67 8.62997 50.63 9.00997 50.7C9.21997 50.74 9.42997 50.79 9.63997 50.82C10.01 50.88 10.34 50.83 10.68 50.64C10.95 50.49 11.29 50.44 11.6 50.41C12.02 50.37 12.36 50.23 12.52 49.83C12.72 49.35 13.09 49.11 13.58 49.01C13.74 48.98 13.89 48.88 14.03 48.78C14.32 48.58 14.63 48.4 14.86 48.14C15.23 47.72 15.56 47.26 15.89 46.8C16.23 46.32 16.53 45.82 16.86 45.34C17.05 45.07 17.29 44.83 17.44 44.53C17.94 43.53 18.78 42.94 19.74 42.48C20.37 42.18 21 41.9 21.65 41.66C22.33 41.41 22.8 40.9 23.29 40.41C23.36 40.34 23.43 40.19 23.41 40.1C23.34 39.84 23.46 39.76 23.66 39.63C24.07 39.37 24.45 39.06 24.83 38.77C24.89 38.72 24.95 38.64 24.97 38.56C25.1 37.98 25.49 37.59 25.94 37.25C26.08 37.14 26.19 37.04 26.04 36.86C25.92 36.71 25.81 36.54 25.58 36.71C25.47 36.79 25.34 36.85 25.2 36.87C25.11 36.89 24.95 36.86 24.93 36.8C24.9 36.73 24.93 36.58 24.99 36.51C25.26 36.2 25.56 35.91 25.84 35.62C25.91 35.55 25.95 35.47 26.02 35.4C26.17 35.24 26.33 35.09 26.48 34.94C26.66 34.76 26.85 34.57 27.03 34.39C27.15 34.27 27.23 34.1 27.36 34.01C28.2 33.4 28.99 32.74 29.96 32.33C30.47 32.12 30.91 31.77 31.38 31.46C31.46 31.4 31.55 31.26 31.54 31.17C31.48 30.55 31.87 30.08 32.06 29.55C32.29 28.94 32.71 28.51 33.25 28.16C33.65 27.91 34.05 27.66 34.43 27.39C34.67 27.22 34.88 27 35.12 26.82C35.35 26.65 35.6 26.51 35.83 26.35C35.95 26.27 36.07 26.17 36.18 26.08C36.39 25.9 36.6 25.72 36.79 25.53C36.9 25.42 37.02 25.29 37.06 25.14C37.19 24.6 37.47 24.14 37.72 23.66C37.86 23.41 37.92 23.1 37.95 22.81C38 22.37 38.03 21.95 38.56 21.8C38.67 21.77 38.76 21.61 38.83 21.49C39 21.19 39.14 20.88 39.29 20.58C39.31 20.53 39.31 20.46 39.35 20.43C39.89 20 39.87 19.33 40.02 18.75C40.17 18.18 40.39 17.67 40.82 17.25C41.55 16.54 42.13 15.71 42.43 14.74C42.59 14.24 42.9 13.77 42.81 13.21C42.81 13.16 42.85 13.07 42.89 13.05C43.26 12.88 43.38 12.54 43.51 12.2C43.54 12.11 43.6 12.03 43.64 11.97C43.52 11.77 43.33 11.59 43.34 11.41C43.34 11.28 43.63 11.18 43.78 11.05C43.95 10.9 44.09 10.73 44.26 10.58C44.41 10.45 44.59 10.36 44.73 10.22C44.83 10.13 44.92 10.01 44.97 9.89001C45.07 9.64001 45.07 9.31001 45.23 9.12001C45.71 8.54001 45.8 7.85001 45.88 7.15001C45.94 6.70001 46.02 6.24001 46.08 5.79001C46.1 5.68001 46.1 5.55001 46.06 5.44001C45.93 5.12001 46.06 4.73001 45.79 4.45001C45.77 4.42001 45.79 4.35001 45.8 4.30001C45.89 3.98001 45.98 3.65001 46.08 3.33001C46.19 2.99001 46.41 2.75001 46.74 2.63001C47.1 2.50001 47.31 2.23001 47.54 1.94001C48.06 1.30001 48.65 0.70001 49.23 0.11001C49.34 9.74536e-06 49.58 -0.0499903 49.73 -0.0199903C50.2 0.0700098 50.66 0.19001 51.11 0.36001C51.3 0.43001 51.45 0.64001 51.57 0.81001C51.72 1.03001 51.85 1.22001 52.13 1.30001C52.51 1.42001 52.57 1.66001 52.36 1.99001C52.04 2.48001 51.73 2.97001 51.4 3.48001C51.7 3.64001 51.74 3.88001 51.52 4.17001C51.4 4.34001 51.52 4.42001 51.64 4.50001C51.91 4.70001 51.9 4.76001 51.61 4.94001C51.49 5.01001 51.39 5.15001 51.34 5.29001C51.14 5.82001 50.96 6.35001 50.78 6.88001C50.74 7.00001 50.74 7.17001 50.79 7.27001C50.99 7.63001 50.9 7.93001 50.67 8.22001C50.58 8.34001 50.49 8.46001 50.4 8.58001C50.26 8.77001 50.19 8.98001 50.35 9.20001C50.36 9.22001 50.37 9.24001 50.37 9.26001C50.42 9.70001 50.48 10.13 50.51 10.57C50.51 10.67 50.41 10.81 50.32 10.89C50.02 11.14 49.93 11.45 50 11.81C50.07 12.17 49.97 12.47 49.7 12.7C49.55 12.82 49.53 12.94 49.59 13.11C49.68 13.36 49.7 13.58 49.38 13.71C49.15 13.81 49.2 14.04 49.22 14.25C49.24 14.49 49.3 14.74 49.27 14.98C49.22 15.36 48.96 15.63 48.64 15.83C48.23 16.08 48.06 16.44 48.15 16.92C48.15 16.95 48.17 16.98 48.16 17.02C48.05 17.77 47.92 18.53 47.82 19.28C47.8 19.44 47.84 19.61 47.83 19.77C47.81 19.98 47.77 20.19 47.74 20.4C47.72 20.6 47.65 20.81 47.7 21C47.8 21.39 47.95 21.77 48.09 22.15C48.23 22.54 48.22 22.89 47.9 23.21C47.77 23.34 47.69 23.56 47.65 23.75C47.55 24.2 47.31 24.55 46.99 24.87C46.78 25.08 46.57 25.3 46.33 25.48C45.69 25.95 45.42 26.68 45.03 27.32C44.97 27.41 45.03 27.58 45.05 27.71C45.06 27.87 45.11 28.04 45.08 28.19C45.03 28.44 44.81 28.68 45.09 28.92C45.11 28.94 45.11 28.98 45.1 29.01C45.06 29.43 44.41 29.91 44.01 29.82C43.76 29.76 43.52 29.68 43.28 29.6C43.05 29.52 43.02 29.32 43.15 29.14C43.39 28.81 43.61 28.47 43.85 28.12L43.93 28.15ZM33.4 32.2C33.4 32.2 33.33 32.17 33.3 32.15C33.15 32.37 33.02 32.61 32.86 32.82C32.68 33.05 32.5 33.36 32.26 33.44C31.74 33.62 31.24 33.79 30.86 34.21C30.82 34.25 30.74 34.25 30.68 34.27C30.15 34.51 29.61 34.73 29.1 35C28.88 35.12 28.74 35.36 28.44 35.2C28.39 35.17 28.28 35.27 28.19 35.31C27.88 35.44 27.57 35.58 27.25 35.68C26.99 35.76 26.8 35.99 26.85 36.24C26.88 36.41 26.85 36.58 26.85 36.79C26.89 36.79 26.98 36.79 27.06 36.76C27.78 36.43 28.56 36.34 29.33 36.27C29.67 36.24 30.01 36.22 30.28 35.96C30.76 35.51 31.25 35.07 31.74 34.62C32.01 34.37 32.29 34.16 32.7 34.18C33 34.19 33.16 33.99 33.19 33.7C33.22 33.4 33.25 33.11 33.29 32.81C33.32 32.61 33.35 32.4 33.39 32.2H33.4Z" fill="white"/>
<path d="M23.6399 50.39C22.5399 51.21 21.73 52.19 21.1 53.34C19.85 55.64 19.5 58.09 19.66 60.64C20.99 59.57 22.56 58.67 24.41 57.92C26.25 57.29 27.2699 57.03 27.4 56.99C27.46 56.99 27.5099 56.97 27.57 56.96C27.58 56.71 27.61 56.46 27.6399 56.21C28.07 53.23 30.57 51.12 33.63 51.08C33.75 51.08 33.8799 51.03 33.9799 50.96C34.65 50.44 35.2999 49.91 36.0099 49.35C32.9899 46.93 29.58 46.31 25.85 47.46C22.3 48.55 19.54 51.91 19.2 55.27C20.34 52.63 22.4399 50.73 23.65 50.4L23.6399 50.39Z" fill="white"/>
</g>
<defs>
<clipPath id="clip0_30_1222">
<rect width="252.41" height="85.89" fill="white"/>
</clipPath>
</defs>
</svg>
