<svg width="20" height="21" viewBox="0 0 20 21" fill="none" xmlns="http://www.w3.org/2000/svg">
<mask id="mask0_2001_55009" style="mask-type:alpha" maskUnits="userSpaceOnUse" x="0" y="0" width="20" height="21">
<circle cx="10" cy="10.5" r="10" fill="#D9D9D9"/>
</mask>
<g mask="url(#mask0_2001_55009)">
<mask id="mask1_2001_55009" style="mask-type:luminance" maskUnits="userSpaceOnUse" x="-3" y="0" width="29" height="21">
<path d="M-2.06177 0.293804H25.2802V20.8002H-2.06177V0.293804Z" fill="white"/>
</mask>
<g mask="url(#mask1_2001_55009)">
<path fill-rule="evenodd" clip-rule="evenodd" d="M-2.06177 0.293804H25.2802V20.8002H-2.06177V0.293804Z" fill="#F7FCFF"/>
<path fill-rule="evenodd" clip-rule="evenodd" d="M-2.06177 12.8256V14.5344H25.2802V12.8256H-2.06177Z" fill="#E31D1C"/>
<path fill-rule="evenodd" clip-rule="evenodd" d="M-2.06177 15.9585V17.6674H25.2802V15.9585H-2.06177Z" fill="#E31D1C"/>
<path fill-rule="evenodd" clip-rule="evenodd" d="M-2.06177 6.55959V8.26846H25.2802V6.55959H-2.06177Z" fill="#E31D1C"/>
<path fill-rule="evenodd" clip-rule="evenodd" d="M-2.06177 19.0914V20.8003H25.2802V19.0914H-2.06177Z" fill="#E31D1C"/>
<path fill-rule="evenodd" clip-rule="evenodd" d="M-2.06177 9.69263V11.4015H25.2802V9.69263H-2.06177Z" fill="#E31D1C"/>
<path fill-rule="evenodd" clip-rule="evenodd" d="M-2.06177 0.293804V2.00267H25.2802V0.293804H-2.06177Z" fill="#E31D1C"/>
<path fill-rule="evenodd" clip-rule="evenodd" d="M-2.06177 3.42686V5.13573H25.2802V3.42686H-2.06177Z" fill="#E31D1C"/>
<path d="M-2.06177 0.293804H15.0269V11.4015H-2.06177V0.293804Z" fill="#2E42A5"/>
<path fill-rule="evenodd" clip-rule="evenodd" d="M-0.59055 2.80477L-1.21077 3.23958L-1.00138 2.46579L-1.55225 1.97542H-0.83274L-0.591422 1.34394L-0.308458 1.97542H0.304906L-0.177029 2.46579L0.00954521 3.23958L-0.59055 2.80477ZM2.82719 2.80477L2.20697 3.23958L2.41636 2.46579L1.8655 1.97542H2.585L2.82632 1.34394L3.10928 1.97542H3.72265L3.24071 2.46579L3.42729 3.23958L2.82719 2.80477ZM5.62471 3.23958L6.24493 2.80477L6.84503 3.23958L6.65842 2.46579L7.14041 1.97542H6.52701L6.24406 1.34394L6.00274 1.97542H5.28324L5.8341 2.46579L5.62471 3.23958ZM9.6627 2.80477L9.04246 3.23958L9.25189 2.46579L8.70095 1.97542H9.42047L9.66184 1.34394L9.94475 1.97542H10.5581L10.0762 2.46579L10.2628 3.23958L9.6627 2.80477ZM-1.21077 6.65732L-0.59055 6.22251L0.00954521 6.65732L-0.177029 5.88353L0.304906 5.39317H-0.308458L-0.591422 4.76168L-0.83274 5.39317H-1.55225L-1.00138 5.88353L-1.21077 6.65732ZM2.82719 6.22251L2.20697 6.65732L2.41636 5.88353L1.8655 5.39317H2.585L2.82632 4.76168L3.10928 5.39317H3.72265L3.24071 5.88353L3.42729 6.65732L2.82719 6.22251ZM5.62471 6.65732L6.24493 6.22251L6.84503 6.65732L6.65842 5.88353L7.14041 5.39317H6.52701L6.24406 4.76168L6.00274 5.39317H5.28324L5.8341 5.88353L5.62471 6.65732ZM9.6627 6.22251L9.04246 6.65732L9.25189 5.88353L8.70095 5.39317H9.42047L9.66184 4.76168L9.94475 5.39317H10.5581L10.0762 5.88353L10.2628 6.65732L9.6627 6.22251ZM-1.21077 10.0751L-0.59055 9.64025L0.00954521 10.0751L-0.177029 9.30129L0.304906 8.81091H-0.308458L-0.591422 8.17942L-0.83274 8.81091H-1.55225L-1.00138 9.30129L-1.21077 10.0751ZM2.82719 9.64025L2.20697 10.0751L2.41636 9.30129L1.8655 8.81091H2.585L2.82632 8.17942L3.10928 8.81091H3.72265L3.24071 9.30129L3.42729 10.0751L2.82719 9.64025ZM5.62471 10.0751L6.24493 9.64025L6.84503 10.0751L6.65842 9.30129L7.14041 8.81091H6.52701L6.24406 8.17942L6.00274 8.81091H5.28324L5.8341 9.30129L5.62471 10.0751ZM9.6627 9.64025L9.04246 10.0751L9.25189 9.30129L8.70095 8.81091H9.42047L9.66184 8.17942L9.94475 8.81091H10.5581L10.0762 9.30129L10.2628 10.0751L9.6627 9.64025ZM12.4602 3.23958L13.0804 2.80477L13.6805 3.23958L13.4939 2.46579L13.9759 1.97542H13.3625L13.0796 1.34394L12.8382 1.97542H12.1187L12.6696 2.46579L12.4602 3.23958ZM13.0804 6.22251L12.4602 6.65732L12.6696 5.88353L12.1187 5.39317H12.8382L13.0796 4.76168L13.3625 5.39317H13.9759L13.4939 5.88353L13.6805 6.65732L13.0804 6.22251ZM12.4602 10.0751L13.0804 9.64025L13.6805 10.0751L13.4939 9.30129L13.9759 8.81091H13.3625L13.0796 8.17942L12.8382 8.81091H12.1187L12.6696 9.30129L12.4602 10.0751ZM1.11832 4.51364L0.498103 4.94845L0.70749 4.17466L0.156628 3.68429H0.876131L1.11745 3.05281L1.40041 3.68429H2.01378L1.53184 4.17466L1.71842 4.94845L1.11832 4.51364ZM3.91584 4.94845L4.53606 4.51364L5.13616 4.94845L4.94958 4.17466L5.43152 3.68429H4.81815L4.53519 3.05281L4.29387 3.68429H3.57437L4.12523 4.17466L3.91584 4.94845ZM7.95383 4.51364L7.33359 4.94845L7.54301 4.17466L6.99207 3.68429H7.71159L7.95297 3.05281L8.23588 3.68429H8.84928L8.36729 4.17466L8.5539 4.94845L7.95383 4.51364ZM0.498103 8.36619L1.11832 7.93138L1.71842 8.36619L1.53184 7.5924L2.01378 7.10204H1.40041L1.11745 6.47055L0.876131 7.10204H0.156628L0.70749 7.5924L0.498103 8.36619ZM4.53606 7.93138L3.91584 8.36619L4.12523 7.5924L3.57437 7.10204H4.29387L4.53519 6.47055L4.81815 7.10204H5.43152L4.94958 7.5924L5.13616 8.36619L4.53606 7.93138ZM7.33359 8.36619L7.95383 7.93138L8.5539 8.36619L8.36729 7.5924L8.84928 7.10204H8.23588L7.95297 6.47055L7.71159 7.10204H6.99207L7.54301 7.5924L7.33359 8.36619ZM11.3716 4.51364L10.7513 4.94845L10.9608 4.17466L10.4098 3.68429H11.1293L11.3707 3.05281L11.6536 3.68429H12.267L11.785 4.17466L11.9716 4.94845L11.3716 4.51364ZM10.7513 8.36619L11.3716 7.93138L11.9716 8.36619L11.785 7.5924L12.267 7.10204H11.6536L11.3707 6.47055L11.1293 7.10204H10.4098L10.9608 7.5924L10.7513 8.36619Z" fill="#F7FCFF"/>
</g>
</g>
</svg>
