<svg width="20" height="21" viewBox="0 0 20 21" fill="none" xmlns="http://www.w3.org/2000/svg">
<mask id="mask0_2001_55064" style="mask-type:alpha" maskUnits="userSpaceOnUse" x="0" y="0" width="20" height="21">
<circle cx="10" cy="10.5" r="10" fill="#D9D9D9"/>
</mask>
<g mask="url(#mask0_2001_55064)">
<path d="M-1.13403 -0.324789H42.1649V21.3247H-1.13403V-0.324789Z" fill="#DA2031"/>
<path d="M13.2988 -0.324762H27.7318V21.3247H13.2988V-0.324762Z" fill="#0066B2"/>
<path d="M6.08244 9.0567C7.17847 9.0567 8.06697 8.1682 8.06697 7.07217C8.06697 5.97614 7.17847 5.08763 6.08244 5.08763C4.98641 5.08763 4.0979 5.97614 4.0979 7.07217C4.0979 8.1682 4.98641 9.0567 6.08244 9.0567Z" fill="#FFD300"/>
<path d="M6.08243 8.33507C7.2781 8.33507 8.24738 7.36579 8.24738 6.17012C8.24738 4.97445 7.2781 4.00517 6.08243 4.00517C4.88676 4.00517 3.91748 4.97445 3.91748 6.17012C3.91748 7.36579 4.88676 8.33507 6.08243 8.33507Z" fill="#DA2031"/>
<path d="M6.08246 7.97423C6.87957 7.97423 7.52576 7.32804 7.52576 6.53093C7.52576 5.73382 6.87957 5.08763 6.08246 5.08763C5.28535 5.08763 4.63916 5.73382 4.63916 6.53093C4.63916 7.32804 5.28535 7.97423 6.08246 7.97423Z" fill="#FFD300"/>
<path d="M6.23425 1.84021C6.05492 1.92158 5.98792 2.06829 5.97348 2.21443C5.96446 2.33747 6.01877 2.47606 6.02418 2.59639C6.02418 2.80347 5.80992 2.87167 5.80992 3.16722C5.80992 3.26879 5.90374 3.38072 5.90374 3.64434C5.8875 3.78271 5.81028 3.81392 5.72332 3.82475C5.67548 3.82475 5.62959 3.80574 5.59575 3.77191C5.56192 3.73807 5.54291 3.69219 5.54291 3.64434C5.54304 3.59809 5.56093 3.55365 5.59289 3.52021C5.59858 3.51377 5.60473 3.50774 5.61129 3.50217C5.65242 3.46068 5.70889 3.44462 5.70853 3.33511C5.70853 3.27882 5.67209 3.22758 5.63727 3.12793C5.60443 3.03122 5.62825 2.86957 5.70637 2.77414C5.58008 2.82285 5.50225 2.9439 5.46256 3.05251C5.4207 3.18602 5.45714 3.26291 5.39977 3.37386C5.36477 3.44567 5.3231 3.47544 5.28359 3.53533C5.23686 3.60064 5.18201 3.75338 5.18201 3.82428C5.18201 4.06352 5.27705 4.29297 5.44622 4.46213C5.61539 4.6313 5.84483 4.72634 6.08408 4.72634C6.32332 4.72634 6.55276 4.6313 6.72193 4.46213C6.8911 4.29297 6.98614 4.06352 6.98614 3.82428C6.98614 3.75338 6.93201 3.60064 6.88529 3.53533C6.84578 3.47544 6.80338 3.44567 6.76838 3.37386C6.71173 3.26291 6.74817 3.18602 6.70632 3.05251C6.66663 2.9439 6.58869 2.82288 6.46247 2.77414C6.54059 2.86957 6.56441 3.03122 6.53157 3.12793C6.49657 3.22751 6.45977 3.27875 6.45977 3.33511C6.45977 3.44462 6.51587 3.46068 6.55701 3.50217C6.56357 3.50774 6.56972 3.51377 6.57541 3.52021C6.60736 3.55365 6.62525 3.59809 6.62539 3.64434C6.62539 3.69219 6.60638 3.73807 6.57254 3.77191C6.53871 3.80574 6.49282 3.82475 6.44497 3.82475C6.34521 3.81212 6.27358 3.76557 6.26456 3.64434C6.26456 3.29701 6.41322 3.27485 6.41322 3.01784C6.41322 2.65084 6.08415 2.47711 6.08415 2.2088C6.08415 2.11787 6.10544 1.96289 6.23425 1.83974V1.84021ZM2.11353 9.41753H3.91765V18.0773H2.11353V9.41753ZM8.24755 9.41753H10.0517V18.0773H8.24755V9.41753ZM4.27847 9.41753H7.88672L6.0826 10.5L4.27847 9.41753ZM4.27847 10.8608H7.88672V11.5825H4.27847V10.8608ZM4.27847 15.9124H7.88672V16.634H4.27847V15.9124ZM4.27847 16.9949H7.88672L6.0826 18.0773L4.27847 16.9949Z" fill="#FFD300"/>
<path d="M6.08244 15.5515C7.07883 15.5515 7.88657 14.7438 7.88657 13.7474C7.88657 12.751 7.07883 11.9433 6.08244 11.9433C5.08605 11.9433 4.27832 12.751 4.27832 13.7474C4.27832 14.7438 5.08605 15.5515 6.08244 15.5515Z" fill="#FFD300"/>
<path d="M6.0825 13.1521C6.28178 13.1521 6.44333 12.9906 6.44333 12.7913C6.44333 12.592 6.28178 12.4305 6.0825 12.4305C5.88323 12.4305 5.72168 12.592 5.72168 12.7913C5.72168 12.9906 5.88323 13.1521 6.0825 13.1521Z" fill="#DA2032"/>
<path d="M6.0825 15.0644C6.28178 15.0644 6.44333 14.9029 6.44333 14.7036C6.44333 14.5043 6.28178 14.3428 6.0825 14.3428C5.88323 14.3428 5.72168 14.5043 5.72168 14.7036C5.72168 14.9029 5.88323 15.0644 6.0825 15.0644Z" fill="#DA2032"/>
<path d="M6.0825 11.7268C6.3648 11.7268 6.63555 11.839 6.83517 12.0386C7.03479 12.2382 7.14693 12.509 7.14693 12.7913C7.14693 13.0736 7.03479 13.3443 6.83517 13.5439C6.63555 13.7436 6.3648 13.8557 6.0825 13.8557C5.85761 13.8557 5.64194 13.945 5.48292 14.1041C5.3239 14.2631 5.23456 14.4787 5.23456 14.7036C5.23456 14.9285 5.3239 15.1442 5.48292 15.3032C5.64194 15.4622 5.85761 15.5516 6.0825 15.5516V15.7681C5.80019 15.7681 5.52945 15.6559 5.32983 15.4563C5.13021 15.2567 5.01807 14.9859 5.01807 14.7036C5.01807 14.4213 5.13021 14.1506 5.32983 13.951C5.52945 13.7513 5.80019 13.6392 6.0825 13.6392C6.30739 13.6392 6.52306 13.5499 6.68208 13.3908C6.8411 13.2318 6.93044 13.0161 6.93044 12.7913C6.93044 12.5664 6.8411 12.3507 6.68208 12.1917C6.52306 12.0327 6.30739 11.9433 6.0825 11.9433V11.7268Z" fill="#DA2032"/>
</g>
</svg>
