<svg width="190" height="24" viewBox="0 0 190 24" fill="none" xmlns="http://www.w3.org/2000/svg">
<g clip-path="url(#clip0_2008_3794)">
<path d="M0.941085 7.62329H5.43304V19.0054H3.84251V16.7295C3.22615 16.7416 2.70299 16.9677 2.27604 17.4138C1.8491 17.8599 1.63562 18.3904 1.63562 19.0084H0L1.57248 9.21786H0.730619L0.941085 7.62329ZM2.20689 15.5268C2.72704 15.2766 3.27125 15.147 3.84552 15.138V9.22088H3.19608L2.20689 15.5298V15.5268Z" fill="#113B54"/>
<path d="M12.5528 7.62314V11.0534C12.5528 11.5749 12.3904 12.0331 12.0657 12.434C12.3904 12.8349 12.5528 13.2961 12.5528 13.8146V16.8228C12.5528 17.4287 12.3423 17.9442 11.9214 18.3662C11.5005 18.7882 10.9863 18.9992 10.382 18.9992H7.98267V15.3097H9.57319V17.4076H10.385C10.5473 17.4076 10.6857 17.3503 10.7999 17.2358C10.9142 17.1213 10.9713 16.9826 10.9713 16.8198V13.8115C10.9713 13.703 10.9442 13.6066 10.8901 13.5191C10.836 13.4317 10.7668 13.3624 10.6796 13.3081C10.5924 13.2539 10.4962 13.2268 10.388 13.2268H9.54613V11.6322H10.388C10.5504 11.6322 10.6887 11.5749 10.8029 11.4604C10.9172 11.3458 10.9743 11.2072 10.9743 11.0444V9.20566H9.5792V10.749H7.98868V7.61108H12.5618L12.5528 7.62314Z" fill="#113B54"/>
<path d="M18.9749 7.62329H20.5655V19.0054H18.9749V15.9639L17.3694 18.0619V19.0054H15.7788V9.21786H15.0813V7.62329H17.3694V15.7378L18.9749 13.6399V7.62329Z" fill="#113B54"/>
<path d="M26.9847 7.62324H28.5752V19.0053H26.9847V15.9639L25.3791 18.0618V19.0053H23.7886V9.21781H23.0911V7.62324H25.3791V15.7378L26.9847 13.6398V7.62324ZM27.2463 4.8772V6.43861L25.1206 7.17109V5.60968L27.2463 4.8772Z" fill="#113B54"/>
<path d="M34.9794 7.62313H36.5699V19.0052H34.9794V13.0881L33.3739 12.7806V19.0082H31.7833V9.23278H31.1008V7.62313H33.3709V11.2313L34.9764 11.5387V7.62012L34.9794 7.62313Z" fill="#113B54"/>
<path d="M48.8792 7.62314V11.0534C48.8792 11.5749 48.7168 12.0331 48.3921 12.434C48.7168 12.8349 48.8792 13.2961 48.8792 13.8146V16.8228C48.8792 17.4287 48.6687 17.9442 48.2478 18.3662C47.8269 18.7882 47.3127 18.9992 46.7084 18.9992H44.3091V15.3097H45.8996V17.4076H46.7114C46.8738 17.4076 47.0121 17.3503 47.1263 17.2358C47.2406 17.1213 47.2977 16.9826 47.2977 16.8198V13.8115C47.2977 13.703 47.2706 13.6066 47.2165 13.5191C47.1624 13.4317 47.0933 13.3624 47.0061 13.3081C46.9189 13.2539 46.8227 13.2268 46.7144 13.2268H45.8726V11.6322H46.7144C46.8768 11.6322 47.0151 11.5749 47.1293 11.4604C47.2436 11.3458 47.3007 11.2072 47.3007 11.0444V9.20566H45.9056V10.749H44.3151V7.61108H48.8882L48.8792 7.62314Z" fill="#113B54"/>
<path d="M55.1391 7.62329H56.7297L55.999 14.3693C55.957 14.7913 55.8247 15.1681 55.6022 15.4997C55.3797 15.8313 55.0971 16.0815 54.7513 16.2563V19.0054H53.1608V16.2563C52.815 16.0845 52.5294 15.8313 52.3099 15.4997C52.0874 15.1681 51.9551 14.7913 51.913 14.3693L51.1824 7.62329H52.7879L53.5005 14.1915C53.5125 14.3543 53.5576 14.4959 53.6388 14.6135C53.72 14.7341 53.8252 14.8094 53.9545 14.8426C54.2251 14.7763 54.3815 14.5623 54.4236 14.1915L55.1361 7.62329H55.1391Z" fill="#113B54"/>
<path d="M59.0479 7.62329H64.9199L63.9968 14.6316C63.9096 15.2616 63.6691 15.7619 63.2752 16.1357C62.8813 16.5095 62.4033 16.6964 61.841 16.6964H61.3209V19.0054H59.7304V9.21786H59.0479V7.62329ZM62.4213 14.4025L63.1038 9.21485H61.3209V15.1018H61.841C62.1658 15.1018 62.3612 14.8697 62.4243 14.4025H62.4213Z" fill="#113B54"/>
<path d="M72.3765 19.0054H70.7709L69.8148 15.6715C69.1984 17.3083 68.8918 18.4206 68.8918 19.0054H67.3012C67.3012 18.5924 67.3944 18.0528 67.5778 17.3806C67.7612 16.7084 67.9477 16.1176 68.1371 15.6082C68.3265 15.0988 68.6091 14.3633 68.988 13.3957C69.021 13.2993 69.0541 13.2118 69.0842 13.1365L67.9477 9.21786H67.217V7.62329H69.0992L69.9922 10.728C70.4883 9.29624 70.7378 8.26233 70.7378 7.62329H72.3434C72.3434 8.26233 72.2021 9.03701 71.9225 9.94733C71.6398 10.8577 71.246 11.973 70.7378 13.2962L72.3765 19.0023V19.0054Z" fill="#113B54"/>
<path d="M114.996 11.795H113.405V9.06406H112.028V16.6903C112.028 16.841 112.082 16.9736 112.191 17.0882C112.299 17.2027 112.434 17.26 112.597 17.26H113.408V14.7069H114.999V18.8515H112.6C112.004 18.8515 111.496 18.6405 111.075 18.2185C110.654 17.7965 110.444 17.2871 110.444 16.6903V9.06406H109.761V7.46948H114.999V11.795H114.996Z" fill="#113B54"/>
<path d="M122.098 10.6075H120.507V9.06413H119.112V11.569C119.307 11.5148 119.5 11.4876 119.695 11.4876H121.301V13.0822H119.695C119.533 13.0822 119.395 13.1395 119.28 13.254C119.166 13.3686 119.109 13.5072 119.109 13.67V16.6783C119.109 16.8411 119.166 16.9797 119.28 17.0943C119.395 17.2088 119.533 17.2661 119.695 17.2661H120.507V15.1681H122.098V18.8577H119.698C119.103 18.8577 118.592 18.6436 118.165 18.2156C117.738 17.7876 117.524 17.2751 117.524 16.6783V7.47559H122.098V10.6135V10.6075Z" fill="#113B54"/>
<path d="M124.644 7.46957H130.516L129.593 14.4779C129.506 15.1078 129.266 15.6082 128.872 15.982C128.478 16.3558 128 16.5427 127.437 16.5427H126.917V18.8516H125.327V9.06113H124.644V7.46655V7.46957ZM128.018 14.2488L128.7 9.06113H126.917V14.9481H127.437C127.762 14.9481 127.958 14.716 128.021 14.2488H128.018Z" fill="#113B54"/>
<path d="M138.072 17.3535H138.77V21.0762H137.179V18.8486H134.13V20.3618H132.54V17.3535H133.222L134.569 9.06113H133.938V7.46655H138.072V17.3505V17.3535ZM134.879 17.3535H136.485V9.06113H136.178L134.879 17.3535Z" fill="#113B54"/>
<path d="M146.491 17.3384H147.302V21.0792H145.697V18.8516H141.707V9.06113H141.024V7.46655H143.312V17.3505H144.885V7.46957H146.491V17.3384Z" fill="#113B54"/>
<path d="M153.95 10.6075H152.36V9.06413H150.964V11.569C151.16 11.5148 151.352 11.4876 151.548 11.4876H153.153V13.0822H151.548C151.385 13.0822 151.247 13.1395 151.133 13.254C151.019 13.3686 150.961 13.5072 150.961 13.67V16.6783C150.961 16.8411 151.019 16.9797 151.133 17.0943C151.247 17.2088 151.385 17.2661 151.548 17.2661H152.36V15.1681H153.95V18.8577H151.551C150.955 18.8577 150.444 18.6436 150.017 18.2156C149.59 17.7876 149.377 17.2751 149.377 16.6783V7.47559H153.95V10.6135V10.6075Z" fill="#113B54"/>
<path d="M162.366 7.46948H166.858V18.8515H165.267V16.5757C164.651 16.5878 164.128 16.8139 163.701 17.26C163.274 17.7061 163.06 18.2366 163.06 18.8546H161.422L162.994 9.06707H162.152L162.363 7.4725L162.366 7.46948ZM163.632 15.37C164.152 15.1198 164.696 14.9902 165.27 14.9812V9.06406H164.621L163.632 15.373V15.37Z" fill="#113B54"/>
<path d="M173.978 7.46958V10.8999C173.978 11.4213 173.815 11.8795 173.491 12.2804C173.815 12.6813 173.978 13.1425 173.978 13.661V16.6693C173.978 17.2752 173.767 17.7906 173.346 18.2126C172.925 18.6346 172.411 18.8456 171.807 18.8456H169.407V15.1561H170.998V17.2541H171.81C171.972 17.2541 172.11 17.1968 172.225 17.0822C172.339 16.9677 172.396 16.829 172.396 16.6663V13.658C172.396 13.5495 172.369 13.453 172.315 13.3656C172.261 13.2782 172.192 13.2088 172.104 13.1546C172.017 13.1003 171.921 13.0732 171.813 13.0732H170.971V11.4786H171.813C171.975 11.4786 172.113 11.4213 172.228 11.3068C172.342 11.1923 172.399 11.0536 172.399 10.8908V9.05209H171.004V10.5954H169.413V7.45752H173.987L173.978 7.46958Z" fill="#113B54"/>
<path d="M180.4 7.46957H181.99V18.8516H180.4V15.8102L178.794 17.9082V18.8516H177.204V9.06113H176.506V7.46655H178.794V15.5811L180.4 13.4831V7.46655V7.46957Z" fill="#113B54"/>
<path d="M188.412 7.46957H190.003V18.8516H188.412V15.8102L186.807 17.9082V18.8516H185.216V9.06113H184.519V7.46655H186.807V15.5811L188.412 13.4831V7.46655V7.46957Z" fill="#113B54"/>
<path d="M89.9202 23.0655C89.7609 23.0113 89.6556 22.8907 89.6406 22.7309C89.6166 22.5019 89.6105 22.2698 89.6286 22.0437C89.6466 21.8266 89.7068 21.6126 89.7519 21.3835C88.9611 21.5644 88.1613 21.5885 87.3525 21.5584C87.3586 21.5976 87.3586 21.6156 87.3646 21.6307C87.569 22.1914 87.8306 22.7219 88.2064 23.1921C88.4019 23.4363 88.6183 23.6624 88.937 23.7196C89.1595 23.7588 89.3941 23.7498 89.6226 23.7558C89.9082 23.7618 90.1908 23.7558 90.4945 23.7558C90.3772 23.4484 90.251 23.1771 89.9232 23.0655H89.9202Z" fill="url(#paint0_linear_2008_3794)"/>
<path d="M89.2197 13.8418C89.4091 13.8508 89.6045 13.8659 89.791 13.884C90.2269 13.9201 90.6749 13.9593 91.1259 13.9111C91.7333 13.8478 92.1933 13.6941 92.5751 13.4348C92.8096 13.2721 93.0442 13.1033 93.2697 12.9405L93.426 12.829C94.319 12.1839 95.1879 11.8041 96.0839 11.6624C96.1651 11.6504 96.2342 11.5871 96.2793 11.5298C96.2553 11.5298 96.2312 11.5358 96.2042 11.5358C95.4946 11.572 94.8001 11.4785 94.1085 11.3248C93.6365 11.2193 93.1584 11.1198 92.6804 11.0535C92.2083 10.9902 91.7363 11.0083 91.2642 11.1078C90.2269 11.3218 89.4121 11.8644 88.8258 12.7295C88.5913 13.0761 88.444 13.4469 88.3628 13.8327C88.6244 13.8267 88.904 13.8297 89.2227 13.8448L89.2197 13.8418Z" fill="url(#paint1_linear_2008_3794)"/>
<path d="M102.497 7.29457C102.71 7.36992 102.909 7.43925 103.134 7.51762C102.611 6.89668 101.983 6.45056 101.282 6.09788C101.49 6.11597 101.697 6.13104 101.908 6.14912C101.565 5.75123 100.317 5.23277 99.319 5.05191C99.4753 5.01574 99.6317 4.97957 99.8091 4.94038C99.3641 4.81378 98.9311 4.73239 98.4861 4.69622C97.972 4.65402 97.4609 4.65402 96.9588 4.77761C96.7814 4.82282 96.6731 4.80172 96.5438 4.66909C96.3033 4.42192 95.8884 4.28929 95.5817 4.32546C95.7621 4.53646 95.9184 4.75952 95.9996 4.98861C95.7681 5.14837 95.5456 5.29004 95.3382 5.44679C95.1066 5.62463 94.8691 5.78741 94.5715 5.82961C94.4752 5.84468 94.376 5.84166 94.2588 5.85071C94.5835 6.15214 94.9563 6.21544 95.3742 6.16721C95.3442 6.21242 95.3261 6.24257 95.3051 6.27271C94.9232 6.82735 94.5414 7.38198 94.1596 7.93661C93.895 8.32245 93.6334 8.70828 93.3718 9.09713C93.3477 9.1333 93.3237 9.19057 93.3357 9.22976C93.3838 9.43775 93.447 9.6397 93.5011 9.84468C93.5312 9.95621 93.6123 10.0195 93.7206 10.0466C93.8348 10.0768 93.9461 10.1009 94.0603 10.1341C94.0934 10.1431 94.1175 10.1732 94.1475 10.1913C94.1926 10.2185 94.2407 10.2667 94.2888 10.2697C94.4963 10.2818 94.6857 10.2034 94.8721 10.122C94.9774 10.0738 95.0465 10.0014 95.0766 9.88688C95.1247 9.703 95.2389 9.57037 95.4103 9.48597C95.5817 9.40157 95.7561 9.31717 95.9305 9.2388C96.2672 9.08507 96.604 8.95244 96.9828 8.91928C97.3105 8.89215 97.6022 8.75349 97.8247 8.50632C98.1374 8.15967 98.2486 7.74973 98.2095 7.29457C98.1975 7.14084 98.1644 6.99012 98.1374 6.82433C98.1524 6.85146 98.1674 6.86352 98.1734 6.8816C98.2065 6.97203 98.2366 7.06548 98.2727 7.15289C98.2907 7.19509 98.3087 7.24634 98.3448 7.27346C98.9191 7.69848 99.3581 8.23202 99.6587 8.87407C100.068 9.73918 100.2 10.6314 99.8963 11.5568C99.8451 11.7136 99.767 11.8643 99.7038 12.018C99.791 11.2825 99.767 10.5651 99.5595 9.85975C99.337 9.10316 98.7597 8.18379 98.429 8.04212C98.6034 8.44001 98.7357 8.84392 98.7477 9.281C98.7688 10.0828 98.441 10.7038 97.7435 11.1227C97.5481 11.2403 97.3436 11.3187 97.1301 11.379C97.2143 11.4543 97.2775 11.5598 97.3195 11.7045L97.3436 11.7919L97.4368 11.798C97.7525 11.8191 98.0592 11.9095 98.3719 12.0783C98.7357 12.2742 99.0724 12.4852 99.1867 12.9042C99.2168 13.0097 99.337 13.064 99.3731 13.076C99.7008 13.1966 100.134 13.3564 100.579 13.5101C100.601 13.5181 100.614 13.5312 100.618 13.5493C100.705 13.8989 100.648 14.2456 100.455 14.5289C100.269 14.8032 99.9774 14.9811 99.6317 15.0323C98.7838 15.1559 98.1674 15.6292 97.8036 16.437C97.5962 16.8952 97.5571 17.3775 97.5481 17.7482C97.542 18.0014 97.5481 18.2607 97.5631 18.5289C97.6142 18.6073 97.6473 18.6857 97.6443 18.7671C97.6383 19.0082 97.6443 19.2494 97.6623 19.4905C97.6743 19.5719 97.6834 19.6533 97.6954 19.7377C97.8487 20.7173 98.1133 21.5734 98.5072 22.3511C98.5342 22.4053 98.5673 22.4566 98.5974 22.5078C98.6034 22.0919 98.6034 21.6789 98.6184 21.2629C98.6244 21.0429 98.6755 20.8289 98.7748 20.6269C98.8108 20.5546 98.8319 20.4732 98.8379 20.3918C98.877 19.9215 98.892 19.4453 98.9552 18.9781C99.0273 18.4325 99.1386 17.8929 99.2288 17.3503C99.2438 17.2659 99.2859 17.2478 99.3671 17.2418C100.041 17.2026 100.684 17.0399 101.285 16.7354C101.436 16.6601 101.58 16.5696 101.727 16.4852C101.201 17.061 100.537 17.3955 99.788 17.5734C99.8301 17.9532 99.8752 18.3149 99.9083 18.6796C99.9714 19.385 100.044 20.0903 100.077 20.7987C100.107 21.4498 100.089 22.1039 100.089 22.758C100.089 22.8545 100.104 22.9238 100.185 22.9901C100.257 23.0474 100.311 23.1288 100.359 23.2071C100.462 23.3639 100.465 23.5448 100.471 23.7256C100.477 23.8793 100.504 23.9035 100.66 23.9065C101.045 23.9095 101.43 23.9125 101.815 23.9155C101.833 23.9155 101.848 23.9095 101.878 23.9065C101.679 23.6442 101.49 23.394 101.3 23.1469C101.141 22.9389 100.991 22.7158 100.994 22.4506C101.003 21.914 101.03 21.3775 101.075 20.8409C101.093 20.6299 101.192 20.4249 101.225 20.2139C101.258 19.9999 101.234 19.7799 101.27 19.5659C101.4 18.7882 101.595 18.0225 101.833 17.2689C101.968 16.8439 102.106 16.4189 102.386 16.0542C102.789 15.5267 102.984 14.9148 103.047 14.2607C103.095 13.7753 103.047 13.2931 102.948 12.8168C102.921 12.6902 102.888 12.5455 102.921 12.4249C103.02 12.0753 103.089 11.7196 103.11 11.3609C103.149 10.7249 103.089 10.0949 102.882 9.48597C102.419 8.12652 101.562 7.07753 100.314 6.34505C99.7489 6.01348 99.1386 5.80248 98.4771 5.77233C97.7675 5.73918 97.1031 5.89894 96.5198 6.32094C96.5198 6.32094 96.5168 6.31491 96.5198 6.3119C96.8685 5.80248 97.3646 5.52215 97.969 5.43172C98.5192 5.35033 99.0604 5.41363 99.5836 5.60052C101.306 6.22147 102.5 7.37595 103.137 9.07904C103.27 9.43172 103.345 9.80549 103.438 10.1341C103.609 9.45282 103.519 8.28628 102.506 7.28552L102.497 7.29457ZM102.671 11.8793C102.683 11.0775 102.551 10.2968 102.326 9.53119C102.698 10.2787 102.855 11.0534 102.671 11.8793Z" fill="url(#paint2_linear_2008_3794)"/>
<path d="M99.9414 13.6518C99.9204 13.8779 100.032 14.0196 100.221 14.11C100.191 14.2336 100.122 14.321 99.9986 14.3541C99.6498 14.4476 99.3131 14.3843 98.9763 14.2728C99.1808 13.7513 99.0906 13.2841 98.6967 12.9073C98.3299 12.5546 97.8909 12.5908 97.4369 12.7535C97.5121 12.6661 97.5872 12.5787 97.6804 12.5124C97.7766 12.4431 97.8909 12.3978 98.0232 12.3255C97.8759 12.2652 97.7436 12.1959 97.6053 12.1567C97.464 12.1175 97.3136 12.1055 97.1663 12.0844C97.1633 12.0452 97.1603 12.006 97.1543 11.9668C97.1242 11.7618 96.9498 11.587 96.7784 11.584C96.6311 11.584 96.4687 11.7347 96.4477 11.9397C96.4297 12.1145 96.4357 12.2954 96.4597 12.4702C96.4808 12.6179 96.5469 12.7596 96.595 12.9073C96.2823 12.6902 96.0779 12.419 96.0598 12.0211C95.5818 12.1055 95.1578 12.2773 94.767 12.5757C94.9624 12.5395 95.1368 12.5064 95.3142 12.4732C94.4813 12.8741 93.868 13.486 93.4561 14.3029C93.5222 13.902 93.6665 13.5342 93.9011 13.1997C93.856 13.2117 93.8199 13.2298 93.7838 13.2509C93.5583 13.3865 93.3268 13.5162 93.1073 13.6608C92.1271 14.3089 91.0447 14.5531 89.8812 14.4838C89.1505 14.4416 88.4199 14.3963 87.6893 14.4868C86.8504 14.5893 86.0507 14.8093 85.314 15.2223C83.7355 16.1024 82.9207 17.4498 82.8576 19.2373C82.8245 20.22 82.9297 21.1966 83.1222 22.1612C83.2124 22.6164 83.3477 23.0595 83.6153 23.4483C83.8648 23.8101 84.1925 24.015 84.6556 24C85.2148 23.9819 85.7771 23.9969 86.3363 24C86.3694 24 86.4054 24 86.4415 24C86.3664 23.7287 86.1619 23.5086 85.8793 23.3941C85.6177 23.2886 85.4974 23.1077 85.5395 22.8304C85.5666 22.6556 85.6117 22.4807 85.6839 22.318C85.8943 21.8477 86.2461 21.477 86.5979 21.1092C87.0218 20.6691 87.4518 20.2381 87.7645 19.7106C87.8607 19.5478 87.9449 19.376 88.0351 19.2072C87.8998 19.8432 87.6201 20.4099 87.2052 20.9193C87.9599 21.0007 89.4632 20.841 90.1788 20.6058C90.2149 20.5938 90.254 20.5576 90.269 20.5245C90.5035 19.9969 90.8313 19.5297 91.18 19.0716C91.2432 18.9902 91.3033 18.9058 91.3664 18.8244C91.2732 19.0806 91.156 19.3248 91.0477 19.5689C90.705 20.3526 90.4013 21.1424 90.5065 22.0256C90.5727 22.5983 90.7531 23.1198 91.1289 23.5689C91.3694 23.8583 91.6671 24.012 92.061 23.9969C92.5932 23.9789 93.1283 23.9939 93.6635 23.9939C93.7056 23.9939 93.7477 23.9939 93.8018 23.9939C93.6695 23.6593 93.4591 23.4423 93.1103 23.367C92.8397 23.3097 92.6834 23.1379 92.6443 22.8666C92.5962 22.529 92.6804 22.2095 92.7976 21.896C93.0051 21.3413 93.3629 20.8741 93.7207 20.4099C94.1296 19.8824 94.5294 19.3489 94.782 18.7309C94.9053 18.4325 94.9985 18.122 95.0977 17.8327C95.1007 18.9329 94.6647 19.8914 93.9732 20.7505C94.0033 20.7867 94.0243 20.8138 94.0454 20.8379C94.5535 21.4076 95.0556 21.9804 95.5698 22.544C95.9215 22.9299 96.2853 23.3037 96.6552 23.6714C96.8777 23.8945 97.1603 23.9909 97.482 23.9909C98.1044 23.9879 98.7267 23.9909 99.3491 23.9909C99.3822 23.9909 99.4183 23.9879 99.4694 23.9849C99.3311 23.6262 99.1357 23.3398 98.7508 23.2343C98.4682 23.159 98.2697 22.9872 98.1314 22.74C97.7406 22.0497 97.488 21.3052 97.3467 20.5335C97.2294 19.8884 97.1362 19.2373 97.0881 18.5832C97.034 17.8538 97.0761 17.1273 97.3677 16.437C97.7827 15.4514 98.4562 14.7912 99.5957 14.7189C100.14 14.6857 100.435 14.2517 100.398 13.694C100.251 13.6789 100.101 13.6639 99.9414 13.6458V13.6518Z" fill="#B51023"/>
<path d="M91.7423 6.21258C91.646 6.08296 91.6581 6.04377 91.7843 5.98047C91.8595 5.9443 91.8505 5.87497 91.8385 5.8177C91.8355 5.7966 91.7843 5.78153 91.7543 5.77248C91.4747 5.70316 91.2882 5.89004 91.1018 6.04076C90.9605 6.1553 90.8372 6.29396 90.6659 6.36932C90.6328 6.38439 90.6027 6.41152 90.5697 6.43262C90.5757 6.43865 90.5817 6.44769 90.5817 6.44769C90.7651 6.36329 90.9515 6.43865 91.1379 6.44166C91.2191 6.44166 91.2672 6.49291 91.2792 6.56826C91.3243 6.81242 91.2882 7.04754 91.1439 7.25251C91.1139 7.29773 91.0447 7.32184 90.9876 7.34294C90.9154 7.36706 90.8372 7.37912 90.7621 7.39419C90.72 7.40323 90.6779 7.41529 90.6328 7.42132C90.4734 7.44242 90.4374 7.42132 90.3802 7.25854C90.284 7.28869 90.1848 7.31582 90.0886 7.35199C89.9773 7.39419 89.8721 7.44845 89.7609 7.48462C89.6737 7.51476 89.5805 7.53285 89.4903 7.5449C89.4241 7.55395 89.4211 7.58108 89.4331 7.63232C89.4692 7.76193 89.4512 7.82524 89.3309 7.88251C89.1054 7.98801 88.8919 8.14777 88.6183 8.12064C88.5913 8.12064 88.5492 8.13571 88.5311 8.15681C88.4169 8.28944 88.2545 8.28643 88.1072 8.32561C87.9268 8.37384 87.7614 8.33465 87.6051 8.23518C87.4728 8.15078 87.3225 8.14174 87.1872 8.20202C87.0098 8.2804 86.8264 8.2804 86.6399 8.28341C86.4806 8.28341 86.3182 8.30753 86.1589 8.32561C86.0085 8.3437 85.9093 8.44016 85.8191 8.55169C85.777 8.60293 85.7319 8.65116 85.6808 8.68733C85.5846 8.75666 85.4854 8.73254 85.4192 8.63307C85.3922 8.59087 85.3741 8.54566 85.3531 8.50044C85.2749 8.32863 85.1607 8.26533 84.9743 8.2804C84.9111 8.28643 84.845 8.27738 84.7788 8.27437C84.7728 8.27437 84.7668 8.27437 84.7638 8.27437C84.6916 8.27437 84.4691 8.44619 84.4571 8.51853C84.4451 8.58484 84.4361 8.65417 84.4331 8.7235C84.427 8.83202 84.3579 8.90738 84.2647 8.95259C84.1715 9.00082 84.0873 9.07618 84.0061 9.14852C83.9851 9.16661 84.0031 9.22388 83.9911 9.26005C83.979 9.29622 83.955 9.35048 83.9279 9.35651C83.6934 9.40172 83.513 9.54943 83.3176 9.67301C83.2214 9.7333 83.1522 9.7755 83.0229 9.73933C82.8756 9.69713 82.7072 9.70014 82.5509 9.70918C82.1239 9.7333 81.703 9.69713 81.2911 9.58258C81.1257 9.53737 80.9784 9.54038 80.816 9.58258C80.7529 9.59765 80.6657 9.57957 80.6056 9.54943C80.4402 9.47105 80.2748 9.38062 80.1185 9.28718C79.9261 9.17264 79.7336 9.05809 79.5863 8.88025C79.4841 8.75666 79.3849 8.63307 79.2826 8.50949C79.2676 8.4914 79.2526 8.47934 79.2375 8.46427C79.1834 8.40097 79.1263 8.34068 79.0722 8.27437C79.0391 8.23217 79.003 8.18695 78.988 8.13571C78.9699 8.08748 78.9579 8.02719 78.976 7.98499C78.991 7.95184 79.0481 7.92772 79.0932 7.91566C79.1233 7.90662 79.1654 7.91566 79.1985 7.92772C79.4751 8.04227 79.7667 8.08447 80.0554 8.15078C80.3049 8.20805 80.5424 8.29848 80.7619 8.43111C80.8311 8.47331 80.8912 8.46729 80.9543 8.43111C80.9904 8.41001 81.0265 8.39193 81.0596 8.3648C81.1468 8.28944 81.231 8.31355 81.3151 8.3648C81.3633 8.39193 81.4084 8.42509 81.4535 8.45221C81.5346 8.50346 81.6188 8.52154 81.718 8.50647C81.7962 8.49441 81.8804 8.51551 81.9586 8.53661C82.0638 8.56676 82.157 8.56374 82.2322 8.48537C82.3254 8.38891 82.4336 8.3648 82.5629 8.3859C82.605 8.39193 82.6501 8.38288 82.6922 8.37384C82.7794 8.35274 82.8726 8.33767 82.9508 8.29848C83.0801 8.23217 83.2003 8.1538 83.3206 8.07241C83.4469 7.98801 83.5641 7.89758 83.6904 7.81318C83.7596 7.76495 83.8407 7.73179 83.9039 7.67452C84.1143 7.4816 84.3729 7.4183 84.6435 7.40022C84.8209 7.38816 84.9983 7.37912 85.1757 7.38213C85.3621 7.38213 85.5215 7.30677 85.6838 7.23744C85.7079 7.22539 85.7379 7.19826 85.741 7.17414C85.747 7.10481 85.7861 7.09577 85.8432 7.08371C85.9634 7.0596 86.0837 7.02041 86.204 6.98726C86.225 6.98123 86.2461 6.96615 86.2581 6.95108C86.3423 6.82147 86.4716 6.76721 86.6099 6.72802C86.655 6.71597 86.6881 6.70089 86.67 6.64362C86.655 6.59539 86.646 6.54716 86.5738 6.56525C86.5407 6.57429 86.5016 6.57429 86.4686 6.56826C86.4445 6.56525 86.4114 6.54114 86.4114 6.52606C86.4114 6.50496 86.4325 6.47482 86.4535 6.46276C86.5467 6.41453 86.646 6.37233 86.7392 6.32712C86.7602 6.31808 86.7813 6.29999 86.8023 6.29095C86.8534 6.26683 86.9045 6.24573 86.9556 6.22463C87.0158 6.1975 87.0789 6.17037 87.1391 6.14325C87.1781 6.12516 87.2142 6.092 87.2533 6.08296C87.5089 6.01664 87.7614 5.92923 88.032 5.9232C88.1733 5.92019 88.3116 5.87799 88.45 5.84784C88.474 5.84181 88.5101 5.8177 88.5161 5.79358C88.5582 5.63985 88.6965 5.5645 88.7927 5.45598C88.904 5.33239 89.0453 5.26608 89.2046 5.23594C89.3219 5.21182 89.4422 5.19072 89.5594 5.16058C89.6346 5.14249 89.7037 5.10933 89.7759 5.08823C89.845 5.07015 89.9172 5.05809 89.9894 5.04302C90.0254 5.03398 90.0645 5.02493 90.0976 5.00986C90.1638 4.98575 90.2329 4.96465 90.296 4.9345C90.3321 4.91943 90.3742 4.89833 90.3953 4.86517C90.4764 4.75063 90.5847 4.66322 90.6929 4.57279C90.7501 4.52456 90.7921 4.45824 90.8252 4.38891C90.8763 4.28643 90.9244 4.18997 91.0658 4.20504C91.0958 4.20504 91.1319 4.17791 91.159 4.15681C91.2251 4.09954 91.2912 4.03925 91.3544 3.98198C91.3634 3.97294 91.3724 3.95485 91.3814 3.95184C91.5498 3.89758 91.607 3.73782 91.6972 3.61122C91.7874 3.48763 91.8866 3.38816 92.0279 3.32787C92.2684 3.22539 92.4849 3.0807 92.6473 2.87874C92.7314 2.77324 92.8487 2.69185 92.8818 2.54716C92.8818 2.53511 92.9028 2.51702 92.9148 2.51702C93.0201 2.51099 93.0802 2.44166 93.1434 2.36932C93.1584 2.35123 93.1794 2.33918 93.1945 2.32712C93.1854 2.26985 93.1554 2.20655 93.1734 2.16736C93.1885 2.13722 93.2636 2.14023 93.3117 2.12215C93.3658 2.10105 93.417 2.07392 93.4711 2.05282C93.5192 2.03473 93.5703 2.0287 93.6154 2.01062C93.6485 1.99856 93.6785 1.97746 93.7026 1.95334C93.7507 1.9021 93.7808 1.82373 93.8349 1.79358C94.0033 1.70014 94.0905 1.5434 94.1746 1.38364C94.2288 1.28115 94.2919 1.17866 94.349 1.07618C94.3641 1.04905 94.3761 1.01891 94.3761 0.991776C94.3761 0.904361 94.4422 0.822974 94.4061 0.729531C94.4031 0.720488 94.4152 0.705416 94.4242 0.693359C94.4753 0.624029 94.5264 0.5547 94.5835 0.488385C94.6407 0.419056 94.7158 0.37987 94.806 0.382884C94.9053 0.382884 94.9774 0.340684 95.0616 0.292454C95.245 0.186953 95.4404 0.0995381 95.6359 0.0121228C95.672 -0.00294875 95.7321 0.0060942 95.7682 0.0271944C95.8704 0.0935094 95.9726 0.165853 96.0628 0.24724C96.1019 0.280397 96.12 0.346712 96.132 0.397956C96.147 0.464271 96.162 0.521543 96.2192 0.566757C96.2973 0.630058 96.2913 0.693359 96.2101 0.753645C96.0899 0.84106 95.9696 0.928476 95.8433 1.02192C95.9005 1.08823 95.8884 1.14852 95.8073 1.19976C95.7622 1.22689 95.7832 1.25704 95.8073 1.29019C95.8554 1.36254 95.8433 1.37761 95.7591 1.39268C95.7231 1.39871 95.687 1.42282 95.6629 1.44995C95.5667 1.55847 95.4735 1.66698 95.3803 1.77851C95.3593 1.80263 95.3442 1.84483 95.3472 1.87497C95.3623 1.98047 95.3112 2.04076 95.23 2.092C95.1969 2.1131 95.1638 2.13119 95.1308 2.15229C95.0796 2.18545 95.0436 2.22765 95.0616 2.29396C95.0616 2.29999 95.0616 2.30602 95.0616 2.30903C95.0315 2.41755 95.0075 2.52908 94.9714 2.63458C94.9624 2.65869 94.9263 2.68281 94.8992 2.69185C94.806 2.72199 94.7549 2.78831 94.7369 2.88175C94.7188 2.9752 94.6677 3.0385 94.5805 3.06864C94.5324 3.08371 94.5174 3.11084 94.5174 3.15606C94.5174 3.22539 94.4994 3.27964 94.4122 3.27964C94.346 3.27964 94.337 3.34294 94.325 3.39419C94.3069 3.45447 94.2979 3.52079 94.2678 3.57203C94.2197 3.65945 94.1355 3.69863 94.0393 3.71672C93.9191 3.73782 93.8439 3.80715 93.8199 3.93074C93.8199 3.93978 93.8198 3.94882 93.8138 3.95485C93.7176 4.12365 93.6184 4.29245 93.5222 4.46427C93.5011 4.50044 93.4981 4.54566 93.4801 4.58484C93.456 4.63307 93.426 4.67829 93.4019 4.72652C93.3779 4.77173 93.3418 4.81695 93.3358 4.86517C93.3238 4.96766 93.3238 5.07316 93.3207 5.17565C93.3177 5.28115 93.2847 5.36555 93.1764 5.41077C93.1313 5.42885 93.0922 5.47407 93.0652 5.51627C92.999 5.61574 92.9088 5.67603 92.8036 5.72124C92.7344 5.75138 92.6623 5.78454 92.5901 5.80564C92.3947 5.85689 92.2624 6.0076 92.1091 6.12516C92.088 6.14325 92.088 6.18846 92.076 6.22162C92.064 6.2608 92.061 6.30602 92.0369 6.33918C92.0008 6.39343 91.9287 6.42961 91.9708 6.51702C91.9708 6.52305 91.9708 6.53209 91.9647 6.54114C91.9166 6.63759 91.7182 6.69185 91.628 6.63157C91.5739 6.59539 91.5228 6.55319 91.4747 6.50798C91.4296 6.46578 91.4386 6.41755 91.4867 6.38741C91.5739 6.33315 91.6581 6.26985 91.7513 6.20956L91.7423 6.21258ZM88.8528 6.1975C88.8528 6.1975 88.8408 6.18243 88.8348 6.1764C88.7777 6.21559 88.7266 6.2608 88.6664 6.29698C88.6003 6.33616 88.5311 6.39343 88.465 6.39042C88.3237 6.38439 88.1884 6.37836 88.0591 6.44468C88.0471 6.45071 88.026 6.44468 88.011 6.44468C87.8606 6.45372 87.7133 6.45372 87.566 6.47181C87.5029 6.47783 87.4457 6.52305 87.3886 6.45674C87.3796 6.44468 87.3435 6.45674 87.3195 6.45674C87.2323 6.45674 87.1481 6.46578 87.0609 6.45674C86.9917 6.45071 86.9256 6.48989 86.9136 6.55319C86.9045 6.59539 86.8835 6.63458 86.8654 6.68582C86.8745 6.68582 86.8985 6.69788 86.9196 6.69788C87.124 6.68582 87.3164 6.73707 87.5089 6.79434C87.5931 6.81845 87.6772 6.84558 87.7644 6.80941C87.9208 6.74611 88.0801 6.68582 88.2365 6.62252C88.3237 6.58635 88.4109 6.56525 88.5071 6.60745C88.5792 6.63759 88.6334 6.60745 88.6694 6.53812C88.7055 6.46879 88.7416 6.40248 88.7777 6.33315C88.8017 6.28793 88.8318 6.24272 88.8589 6.1975H88.8528Z" fill="#62CAE3"/>
<path d="M85.5575 11.7256C85.1787 12.0059 84.899 12.3495 84.6825 12.7474C84.2526 13.5432 84.1323 14.3902 84.1865 15.2704C84.6435 14.8997 85.1847 14.5892 85.8251 14.3299C86.4595 14.1099 86.8113 14.0225 86.8564 14.0104C86.8774 14.0074 86.8955 14.0044 86.9135 14.0014C86.9165 13.914 86.9255 13.8296 86.9375 13.7422C87.0849 12.7113 87.9478 11.9818 89.0031 11.9667C89.0422 11.9667 89.0903 11.9486 89.1234 11.9245C89.3519 11.7467 89.5804 11.5628 89.8239 11.3669C88.7836 10.5319 87.608 10.3149 86.3212 10.7128C85.0975 11.0896 84.1444 12.2501 84.0271 13.4136C84.418 12.5003 85.1456 11.8431 85.5605 11.7316L85.5575 11.7256Z" fill="url(#paint3_linear_2008_3794)"/>
</g>
<defs>
<linearGradient id="paint0_linear_2008_3794" x1="87.3495" y1="22.5682" x2="90.4915" y2="22.5682" gradientUnits="userSpaceOnUse">
<stop stop-color="#856929"/>
<stop offset="0.17" stop-color="#F2E28F"/>
<stop offset="0.47" stop-color="#AE954A"/>
<stop offset="0.68" stop-color="#D3BF6D"/>
<stop offset="0.8" stop-color="#A58735"/>
<stop offset="1" stop-color="#C9AD58"/>
</linearGradient>
<linearGradient id="paint1_linear_2008_3794" x1="80.4763" y1="19.4424" x2="104.898" y2="4.35105" gradientUnits="userSpaceOnUse">
<stop stop-color="#856929"/>
<stop offset="0.17" stop-color="#F2E28F"/>
<stop offset="0.47" stop-color="#AE954A"/>
<stop offset="0.68" stop-color="#D3BF6D"/>
<stop offset="0.8" stop-color="#A58735"/>
<stop offset="1" stop-color="#C9AD58"/>
</linearGradient>
<linearGradient id="paint2_linear_2008_3794" x1="83.1612" y1="23.7889" x2="107.583" y2="8.69456" gradientUnits="userSpaceOnUse">
<stop stop-color="#856929"/>
<stop offset="0.17" stop-color="#F2E28F"/>
<stop offset="0.47" stop-color="#AE954A"/>
<stop offset="0.68" stop-color="#D3BF6D"/>
<stop offset="0.8" stop-color="#A58735"/>
<stop offset="1" stop-color="#C9AD58"/>
</linearGradient>
<linearGradient id="paint3_linear_2008_3794" x1="78.9879" y1="17.0338" x2="103.406" y2="1.93944" gradientUnits="userSpaceOnUse">
<stop stop-color="#856929"/>
<stop offset="0.17" stop-color="#F2E28F"/>
<stop offset="0.47" stop-color="#AE954A"/>
<stop offset="0.68" stop-color="#D3BF6D"/>
<stop offset="0.8" stop-color="#A58735"/>
<stop offset="1" stop-color="#C9AD58"/>
</linearGradient>
<clipPath id="clip0_2008_3794">
<rect width="190" height="24" fill="white"/>
</clipPath>
</defs>
</svg>
