<svg width="632" height="80" viewBox="0 0 632 80" fill="none" xmlns="http://www.w3.org/2000/svg">
<g clip-path="url(#clip0_2031_423)">
<path d="M3.13 25.29H18.07V63.05H12.78V55.5C10.73 55.54 8.99 56.29 7.57 57.77C6.15 59.25 5.44 61.01 5.44 63.06H0L5.23 30.58H2.43L3.13 25.29ZM7.34 51.51C9.07 50.68 10.88 50.25 12.79 50.22V30.59H10.63L7.34 51.52V51.51Z" fill="white"/>
<path d="M41.7498 25.29V36.67C41.7498 38.4 41.2098 39.92 40.1298 41.25C41.2098 42.58 41.7498 44.11 41.7498 45.83V55.81C41.7498 57.82 41.0498 59.53 39.6498 60.93C38.2498 62.33 36.5398 63.03 34.5298 63.03H26.5498V50.79H31.8398V57.75H34.5398C35.0798 57.75 35.5398 57.56 35.9198 57.18C36.2998 56.8 36.4898 56.34 36.4898 55.8V45.82C36.4898 45.46 36.3998 45.14 36.2198 44.85C36.0398 44.56 35.8098 44.33 35.5198 44.15C35.2298 43.97 34.9098 43.88 34.5498 43.88H31.7498V38.59H34.5498C35.0898 38.59 35.5498 38.4 35.9298 38.02C36.3098 37.64 36.4998 37.18 36.4998 36.64V30.54H31.8598V35.66H26.5698V25.25H41.7798L41.7498 25.29Z" fill="white"/>
<path d="M63.1102 25.29H68.4002V63.05H63.1102V52.96L57.7702 59.92V63.05H52.4802V30.58H50.1602V25.29H57.7702V52.21L63.1102 45.25V25.29Z" fill="white"/>
<path d="M89.7498 25.29H95.0398V63.05H89.7498V52.96L84.4098 59.92V63.05H79.1198V30.58H76.7998V25.29H84.4098V52.21L89.7498 45.25V25.29ZM90.6198 16.18V21.36L83.5498 23.79V18.61L90.6198 16.18Z" fill="white"/>
<path d="M116.34 25.29H121.63V63.05H116.34V43.42L111 42.4V63.06H105.71V30.63H103.44V25.29H110.99V37.26L116.33 38.28V25.28L116.34 25.29Z" fill="white"/>
<path d="M162.57 25.29V36.67C162.57 38.4 162.03 39.92 160.95 41.25C162.03 42.58 162.57 44.11 162.57 45.83V55.81C162.57 57.82 161.87 59.53 160.47 60.93C159.07 62.33 157.36 63.03 155.35 63.03H147.37V50.79H152.66V57.75H155.36C155.9 57.75 156.36 57.56 156.74 57.18C157.12 56.8 157.31 56.34 157.31 55.8V45.82C157.31 45.46 157.22 45.14 157.04 44.85C156.86 44.56 156.63 44.33 156.34 44.15C156.05 43.97 155.73 43.88 155.37 43.88H152.57V38.59H155.37C155.91 38.59 156.37 38.4 156.75 38.02C157.13 37.64 157.32 37.18 157.32 36.64V30.54H152.68V35.66H147.39V25.25H162.6L162.57 25.29Z" fill="white"/>
<path d="M183.39 25.29H188.68L186.25 47.67C186.11 49.07 185.67 50.32 184.93 51.42C184.19 52.52 183.25 53.35 182.1 53.93V63.05H176.81V53.93C175.66 53.36 174.71 52.52 173.98 51.42C173.24 50.32 172.8 49.07 172.66 47.67L170.23 25.29H175.57L177.94 47.08C177.98 47.62 178.13 48.09 178.4 48.48C178.67 48.88 179.02 49.13 179.45 49.24C180.35 49.02 180.87 48.31 181.01 47.08L183.38 25.29H183.39Z" fill="white"/>
<path d="M196.39 25.29H215.92L212.85 48.54C212.56 50.63 211.76 52.29 210.45 53.53C209.14 54.77 207.55 55.39 205.68 55.39H203.95V63.05H198.66V30.58H196.39V25.29ZM207.61 47.78L209.88 30.57H203.95V50.1H205.68C206.76 50.1 207.41 49.33 207.62 47.78H207.61Z" fill="white"/>
<path d="M240.72 63.05H235.38L232.2 51.99C230.15 57.42 229.13 61.11 229.13 63.05H223.84C223.84 61.68 224.15 59.89 224.76 57.66C225.37 55.43 225.99 53.47 226.62 51.78C227.25 50.09 228.19 47.65 229.45 44.44C229.56 44.12 229.67 43.83 229.77 43.58L225.99 30.58H223.56V25.29H229.82L232.79 35.59C234.44 30.84 235.27 27.41 235.27 25.29H240.61C240.61 27.41 240.14 29.98 239.21 33C238.27 36.02 236.96 39.72 235.27 44.11L240.72 63.04V63.05Z" fill="white"/>
<path d="M382.47 39.13H377.18V30.07H372.6V55.37C372.6 55.87 372.78 56.31 373.14 56.69C373.5 57.07 373.95 57.26 374.49 57.26H377.19V48.79H382.48V62.54H374.5C372.52 62.54 370.83 61.84 369.43 60.44C368.03 59.04 367.33 57.35 367.33 55.37V30.07H365.06V24.78H382.48V39.13H382.47Z" fill="white"/>
<path d="M406.09 35.19H400.8V30.07H396.16V38.38C396.81 38.2 397.45 38.11 398.1 38.11H403.44V43.4H398.1C397.56 43.4 397.1 43.59 396.72 43.97C396.34 44.35 396.15 44.81 396.15 45.35V55.33C396.15 55.87 396.34 56.33 396.72 56.71C397.1 57.09 397.56 57.28 398.1 57.28H400.8V50.32H406.09V62.56H398.11C396.13 62.56 394.43 61.85 393.01 60.43C391.59 59.01 390.88 57.31 390.88 55.33V24.8H406.09V35.21V35.19Z" fill="white"/>
<path d="M414.56 24.78H434.09L431.02 48.03C430.73 50.12 429.93 51.78 428.62 53.02C427.31 54.26 425.72 54.88 423.85 54.88H422.12V62.54H416.83V30.06H414.56V24.77V24.78ZM425.78 47.27L428.05 30.06H422.12V49.59H423.85C424.93 49.59 425.58 48.82 425.79 47.27H425.78Z" fill="white"/>
<path d="M459.219 57.57H461.539V69.92H456.249V62.53H446.109V67.55H440.819V57.57H443.089L447.569 30.06H445.469V24.77H459.219V57.56V57.57ZM448.599 57.57H453.939V30.06H452.919L448.599 57.57Z" fill="white"/>
<path d="M487.22 57.52H489.92V69.93H484.58V62.54H471.31V30.06H469.04V24.77H476.65V57.56H481.88V24.78H487.22V57.52Z" fill="white"/>
<path d="M512.029 35.19H506.739V30.07H502.099V38.38C502.749 38.2 503.389 38.11 504.039 38.11H509.379V43.4H504.039C503.499 43.4 503.039 43.59 502.659 43.97C502.279 44.35 502.089 44.81 502.089 45.35V55.33C502.089 55.87 502.279 56.33 502.659 56.71C503.039 57.09 503.499 57.28 504.039 57.28H506.739V50.32H512.029V62.56H504.049C502.069 62.56 500.369 61.85 498.949 60.43C497.529 59.01 496.819 57.31 496.819 55.33V24.8H512.029V35.21V35.19Z" fill="white"/>
<path d="M540.02 24.78H554.96V62.54H549.67V54.99C547.62 55.03 545.88 55.78 544.46 57.26C543.04 58.74 542.33 60.5 542.33 62.55H536.88L542.11 30.08H539.31L540.01 24.79L540.02 24.78ZM544.23 50.99C545.96 50.16 547.77 49.73 549.68 49.7V30.07H547.52L544.23 51V50.99Z" fill="white"/>
<path d="M578.639 24.78V36.16C578.639 37.89 578.099 39.41 577.019 40.74C578.099 42.07 578.639 43.6 578.639 45.32V55.3C578.639 57.31 577.939 59.02 576.539 60.42C575.139 61.82 573.429 62.52 571.419 62.52H563.439V50.28H568.729V57.24H571.429C571.969 57.24 572.429 57.05 572.809 56.67C573.189 56.29 573.379 55.83 573.379 55.29V45.31C573.379 44.95 573.289 44.63 573.109 44.34C572.929 44.05 572.699 43.82 572.409 43.64C572.119 43.46 571.799 43.37 571.439 43.37H568.639V38.08H571.439C571.979 38.08 572.439 37.89 572.819 37.51C573.199 37.13 573.389 36.67 573.389 36.13V30.03H568.749V35.15H563.459V24.74H578.669L578.639 24.78Z" fill="white"/>
<path d="M600 24.78H605.29V62.54H600V52.45L594.66 59.41V62.54H589.37V30.06H587.05V24.77H594.66V51.69L600 44.73V24.77V24.78Z" fill="white"/>
<path d="M626.649 24.78H631.939V62.54H626.649V52.45L621.309 59.41V62.54H616.019V30.06H613.699V24.77H621.309V51.69L626.649 44.73V24.77V24.78Z" fill="white"/>
<path d="M299.07 76.52C298.54 76.34 298.19 75.94 298.14 75.41C298.06 74.65 298.04 73.88 298.1 73.13C298.16 72.41 298.36 71.7 298.51 70.94C295.88 71.54 293.22 71.62 290.53 71.52C290.55 71.65 290.55 71.71 290.57 71.76C291.25 73.62 292.12 75.38 293.37 76.94C294.02 77.75 294.74 78.5 295.8 78.69C296.54 78.82 297.32 78.79 298.08 78.81C299.03 78.83 299.97 78.81 300.98 78.81C300.59 77.79 300.17 76.89 299.08 76.52H299.07Z" fill="url(#paint0_linear_2031_423)"/>
<path d="M296.74 45.92C297.37 45.95 298.02 46 298.64 46.06C300.09 46.18 301.58 46.31 303.08 46.15C305.1 45.94 306.63 45.43 307.9 44.57C308.68 44.03 309.46 43.47 310.21 42.93L310.73 42.56C313.7 40.42 316.59 39.16 319.57 38.69C319.84 38.65 320.07 38.44 320.22 38.25C320.14 38.25 320.06 38.27 319.97 38.27C317.61 38.39 315.3 38.08 313 37.57C311.43 37.22 309.84 36.89 308.25 36.67C306.68 36.46 305.11 36.52 303.54 36.85C300.09 37.56 297.38 39.36 295.43 42.23C294.65 43.38 294.16 44.61 293.89 45.89C294.76 45.87 295.69 45.88 296.75 45.93L296.74 45.92Z" fill="url(#paint1_linear_2031_423)"/>
<path d="M340.9 24.2C341.61 24.45 342.27 24.68 343.02 24.94C341.28 22.88 339.19 21.4 336.86 20.23C337.55 20.29 338.24 20.34 338.94 20.4C337.8 19.08 333.65 17.36 330.33 16.76C330.85 16.64 331.37 16.52 331.96 16.39C330.48 15.97 329.04 15.7 327.56 15.58C325.85 15.44 324.15 15.44 322.48 15.85C321.89 16 321.53 15.93 321.1 15.49C320.3 14.67 318.92 14.23 317.9 14.35C318.5 15.05 319.02 15.79 319.29 16.55C318.52 17.08 317.78 17.55 317.09 18.07C316.32 18.66 315.53 19.2 314.54 19.34C314.22 19.39 313.89 19.38 313.5 19.41C314.58 20.41 315.82 20.62 317.21 20.46C317.11 20.61 317.05 20.71 316.98 20.81C315.71 22.65 314.44 24.49 313.17 26.33C312.29 27.61 311.42 28.89 310.55 30.18C310.47 30.3 310.39 30.49 310.43 30.62C310.59 31.31 310.8 31.98 310.98 32.66C311.08 33.03 311.35 33.24 311.71 33.33C312.09 33.43 312.46 33.51 312.84 33.62C312.95 33.65 313.03 33.75 313.13 33.81C313.28 33.9 313.44 34.06 313.6 34.07C314.29 34.11 314.92 33.85 315.54 33.58C315.89 33.42 316.12 33.18 316.22 32.8C316.38 32.19 316.76 31.75 317.33 31.47C317.9 31.19 318.48 30.91 319.06 30.65C320.18 30.14 321.3 29.7 322.56 29.59C323.65 29.5 324.62 29.04 325.36 28.22C326.4 27.07 326.77 25.71 326.64 24.2C326.6 23.69 326.49 23.19 326.4 22.64C326.45 22.73 326.5 22.77 326.52 22.83C326.63 23.13 326.73 23.44 326.85 23.73C326.91 23.87 326.97 24.04 327.09 24.13C329 25.54 330.46 27.31 331.46 29.44C332.82 32.31 333.26 35.27 332.25 38.34C332.08 38.86 331.82 39.36 331.61 39.87C331.9 37.43 331.82 35.05 331.13 32.71C330.39 30.2 328.47 27.15 327.37 26.68C327.95 28 328.39 29.34 328.43 30.79C328.5 33.45 327.41 35.51 325.09 36.9C324.44 37.29 323.76 37.55 323.05 37.75C323.33 38 323.54 38.35 323.68 38.83L323.76 39.12L324.07 39.14C325.12 39.21 326.14 39.51 327.18 40.07C328.39 40.72 329.51 41.42 329.89 42.81C329.99 43.16 330.39 43.34 330.51 43.38C331.6 43.78 333.04 44.31 334.52 44.82C334.593 44.8467 334.636 44.89 334.65 44.95C334.94 46.11 334.75 47.26 334.11 48.2C333.49 49.11 332.52 49.7 331.37 49.87C328.55 50.28 326.5 51.85 325.29 54.53C324.6 56.05 324.47 57.65 324.44 58.88C324.42 59.72 324.44 60.58 324.49 61.47C324.66 61.73 324.77 61.99 324.76 62.26C324.74 63.06 324.76 63.86 324.82 64.66C324.86 64.93 324.89 65.2 324.93 65.48C325.44 68.73 326.32 71.57 327.63 74.15C327.72 74.33 327.83 74.5 327.93 74.67C327.95 73.29 327.95 71.92 328 70.54C328.02 69.81 328.19 69.1 328.52 68.43C328.64 68.19 328.71 67.92 328.73 67.65C328.86 66.09 328.91 64.51 329.12 62.96C329.36 61.15 329.73 59.36 330.03 57.56C330.08 57.28 330.22 57.22 330.49 57.2C332.73 57.07 334.87 56.53 336.87 55.52C337.37 55.27 337.85 54.97 338.34 54.69C336.59 56.6 334.38 57.71 331.89 58.3C332.03 59.56 332.18 60.76 332.29 61.97C332.5 64.31 332.74 66.65 332.85 69C332.95 71.16 332.89 73.33 332.89 75.5C332.89 75.82 332.94 76.05 333.21 76.27C333.45 76.46 333.63 76.73 333.79 76.99C334.13 77.51 334.14 78.11 334.16 78.71C334.18 79.22 334.27 79.3 334.79 79.31C336.07 79.32 337.35 79.33 338.63 79.34C338.69 79.34 338.74 79.32 338.84 79.31C338.18 78.44 337.55 77.61 336.92 76.79C336.39 76.1 335.89 75.36 335.9 74.48C335.93 72.7 336.02 70.92 336.17 69.14C336.23 68.44 336.56 67.76 336.67 67.06C336.78 66.35 336.7 65.62 336.82 64.91C337.25 62.33 337.9 59.79 338.69 57.29C339.14 55.88 339.6 54.47 340.53 53.26C341.87 51.51 342.52 49.48 342.73 47.31C342.89 45.7 342.73 44.1 342.4 42.52C342.31 42.1 342.2 41.62 342.31 41.22C342.64 40.06 342.87 38.88 342.94 37.69C343.07 35.58 342.87 33.49 342.18 31.47C340.64 26.96 337.79 23.48 333.64 21.05C331.76 19.95 329.73 19.25 327.53 19.15C325.17 19.04 322.96 19.57 321.02 20.97C321.02 20.97 321.01 20.95 321.02 20.94C322.18 19.25 323.83 18.32 325.84 18.02C327.67 17.75 329.47 17.96 331.21 18.58C336.94 20.64 340.91 24.47 343.03 30.12C343.47 31.29 343.72 32.53 344.03 33.62C344.6 31.36 344.3 27.49 340.93 24.17L340.9 24.2ZM341.48 39.41C341.52 36.75 341.08 34.16 340.33 31.62C341.57 34.1 342.09 36.67 341.48 39.41Z" fill="url(#paint2_linear_2031_423)"/>
<path d="M332.4 45.29C332.33 46.04 332.7 46.51 333.33 46.81C333.23 47.22 333 47.51 332.59 47.62C331.43 47.93 330.31 47.72 329.19 47.35C329.87 45.62 329.57 44.07 328.26 42.82C327.04 41.65 325.58 41.77 324.07 42.31C324.32 42.02 324.57 41.73 324.88 41.51C325.2 41.28 325.58 41.13 326.02 40.89C325.53 40.69 325.09 40.46 324.63 40.33C324.16 40.2 323.66 40.16 323.17 40.09C323.16 39.96 323.15 39.83 323.13 39.7C323.03 39.02 322.45 38.44 321.88 38.43C321.39 38.43 320.85 38.93 320.78 39.61C320.72 40.19 320.74 40.79 320.82 41.37C320.89 41.86 321.11 42.33 321.27 42.82C320.23 42.1 319.55 41.2 319.49 39.88C317.9 40.16 316.49 40.73 315.19 41.72C315.84 41.6 316.42 41.49 317.01 41.38C314.24 42.71 312.2 44.74 310.83 47.45C311.05 46.12 311.53 44.9 312.31 43.79C312.16 43.83 312.04 43.89 311.92 43.96C311.17 44.41 310.4 44.84 309.67 45.32C306.41 47.47 302.81 48.28 298.94 48.05C296.51 47.91 294.08 47.76 291.65 48.06C288.86 48.4 286.2 49.13 283.75 50.5C278.5 53.42 275.79 57.89 275.58 63.82C275.47 67.08 275.82 70.32 276.46 73.52C276.76 75.03 277.21 76.5 278.1 77.79C278.93 78.99 280.02 79.67 281.56 79.62C283.42 79.56 285.29 79.61 287.15 79.62C287.26 79.62 287.38 79.62 287.5 79.62C287.25 78.72 286.57 77.99 285.63 77.61C284.76 77.26 284.36 76.66 284.5 75.74C284.59 75.16 284.74 74.58 284.98 74.04C285.68 72.48 286.85 71.25 288.02 70.03C289.43 68.57 290.86 67.14 291.9 65.39C292.22 64.85 292.5 64.28 292.8 63.72C292.35 65.83 291.42 67.71 290.04 69.4C292.55 69.67 297.55 69.14 299.93 68.36C300.05 68.32 300.18 68.2 300.23 68.09C301.01 66.34 302.1 64.79 303.26 63.27C303.47 63 303.67 62.72 303.88 62.45C303.57 63.3 303.18 64.11 302.82 64.92C301.68 67.52 300.67 70.14 301.02 73.07C301.24 74.97 301.84 76.7 303.09 78.19C303.89 79.15 304.88 79.66 306.19 79.61C307.96 79.55 309.74 79.6 311.52 79.6C311.66 79.6 311.8 79.6 311.98 79.6C311.54 78.49 310.84 77.77 309.68 77.52C308.78 77.33 308.26 76.76 308.13 75.86C307.97 74.74 308.25 73.68 308.64 72.64C309.33 70.8 310.52 69.25 311.71 67.71C313.07 65.96 314.4 64.19 315.24 62.14C315.65 61.15 315.96 60.12 316.29 59.16C316.3 62.81 314.85 65.99 312.55 68.84C312.65 68.96 312.72 69.05 312.79 69.13C314.48 71.02 316.15 72.92 317.86 74.79C319.03 76.07 320.24 77.31 321.47 78.53C322.21 79.27 323.15 79.59 324.22 79.59C326.29 79.58 328.36 79.59 330.43 79.59C330.54 79.59 330.66 79.58 330.83 79.57C330.37 78.38 329.72 77.43 328.44 77.08C327.5 76.83 326.84 76.26 326.38 75.44C325.08 73.15 324.24 70.68 323.77 68.12C323.38 65.98 323.07 63.82 322.91 61.65C322.73 59.23 322.87 56.82 323.84 54.53C325.22 51.26 327.46 49.07 331.25 48.83C333.06 48.72 334.04 47.28 333.92 45.43C333.43 45.38 332.93 45.33 332.4 45.27V45.29Z" fill="#B51023"/>
<path d="M305.13 20.61C304.81 20.18 304.85 20.05 305.27 19.84C305.52 19.72 305.49 19.49 305.45 19.3C305.44 19.23 305.27 19.18 305.17 19.15C304.24 18.92 303.62 19.54 303 20.04C302.53 20.42 302.12 20.88 301.55 21.13C301.44 21.18 301.34 21.27 301.23 21.34C301.25 21.36 301.27 21.39 301.27 21.39C301.88 21.11 302.5 21.36 303.12 21.37C303.39 21.37 303.55 21.54 303.59 21.79C303.74 22.6 303.62 23.38 303.14 24.06C303.04 24.21 302.81 24.29 302.62 24.36C302.38 24.44 302.12 24.48 301.87 24.53C301.73 24.56 301.59 24.6 301.44 24.62C300.91 24.69 300.79 24.62 300.6 24.08C300.28 24.18 299.95 24.27 299.63 24.39C299.26 24.53 298.91 24.71 298.54 24.83C298.25 24.93 297.94 24.99 297.64 25.03C297.42 25.06 297.41 25.15 297.45 25.32C297.57 25.75 297.51 25.96 297.11 26.15C296.36 26.5 295.65 27.03 294.74 26.94C294.65 26.94 294.51 26.99 294.45 27.06C294.07 27.5 293.53 27.49 293.04 27.62C292.44 27.78 291.89 27.65 291.37 27.32C290.93 27.04 290.43 27.01 289.98 27.21C289.39 27.47 288.78 27.47 288.16 27.48C287.63 27.48 287.09 27.56 286.56 27.62C286.06 27.68 285.73 28 285.43 28.37C285.29 28.54 285.14 28.7 284.97 28.82C284.65 29.05 284.32 28.97 284.1 28.64C284.01 28.5 283.95 28.35 283.88 28.2C283.62 27.63 283.24 27.42 282.62 27.47C282.41 27.49 282.19 27.46 281.97 27.45C281.95 27.45 281.93 27.45 281.92 27.45C281.68 27.45 280.94 28.02 280.9 28.26C280.86 28.48 280.83 28.71 280.82 28.94C280.8 29.3 280.57 29.55 280.26 29.7C279.95 29.86 279.67 30.11 279.4 30.35C279.33 30.41 279.39 30.6 279.35 30.72C279.31 30.84 279.23 31.02 279.14 31.04C278.36 31.19 277.76 31.68 277.11 32.09C276.79 32.29 276.56 32.43 276.13 32.31C275.64 32.17 275.08 32.18 274.56 32.21C273.14 32.29 271.74 32.17 270.37 31.79C269.82 31.64 269.33 31.65 268.79 31.79C268.58 31.84 268.29 31.78 268.09 31.68C267.54 31.42 266.99 31.12 266.47 30.81C265.83 30.43 265.19 30.05 264.7 29.46C264.36 29.05 264.03 28.64 263.69 28.23C263.64 28.17 263.59 28.13 263.54 28.08C263.36 27.87 263.17 27.67 262.99 27.45C262.88 27.31 262.76 27.16 262.71 26.99C262.65 26.83 262.61 26.63 262.67 26.49C262.72 26.38 262.91 26.3 263.06 26.26C263.16 26.23 263.3 26.26 263.41 26.3C264.33 26.68 265.3 26.82 266.26 27.04C267.09 27.23 267.88 27.53 268.61 27.97C268.84 28.11 269.04 28.09 269.25 27.97C269.37 27.9 269.49 27.84 269.6 27.75C269.89 27.5 270.17 27.58 270.45 27.75C270.61 27.84 270.76 27.95 270.91 28.04C271.18 28.21 271.46 28.27 271.79 28.22C272.05 28.18 272.33 28.25 272.59 28.32C272.94 28.42 273.25 28.41 273.5 28.15C273.81 27.83 274.17 27.75 274.6 27.82C274.74 27.84 274.89 27.81 275.03 27.78C275.32 27.71 275.63 27.66 275.89 27.53C276.32 27.31 276.72 27.05 277.12 26.78C277.54 26.5 277.93 26.2 278.35 25.92C278.58 25.76 278.85 25.65 279.06 25.46C279.76 24.82 280.62 24.61 281.52 24.55C282.11 24.51 282.7 24.48 283.29 24.49C283.91 24.49 284.44 24.24 284.98 24.01C285.06 23.97 285.16 23.88 285.17 23.8C285.19 23.57 285.32 23.54 285.51 23.5C285.91 23.42 286.31 23.29 286.71 23.18C286.78 23.16 286.85 23.11 286.89 23.06C287.17 22.63 287.6 22.45 288.06 22.32C288.21 22.28 288.32 22.23 288.26 22.04C288.21 21.88 288.18 21.72 287.94 21.78C287.83 21.81 287.7 21.81 287.59 21.79C287.51 21.78 287.4 21.7 287.4 21.65C287.4 21.58 287.47 21.48 287.54 21.44C287.85 21.28 288.18 21.14 288.49 20.99C288.56 20.96 288.63 20.9 288.7 20.87C288.87 20.79 289.04 20.72 289.21 20.65C289.41 20.56 289.62 20.47 289.82 20.38C289.95 20.32 290.07 20.21 290.2 20.18C291.05 19.96 291.89 19.67 292.79 19.65C293.26 19.64 293.72 19.5 294.18 19.4C294.26 19.38 294.38 19.3 294.4 19.22C294.54 18.71 295 18.46 295.32 18.1C295.69 17.69 296.16 17.47 296.69 17.37C297.08 17.29 297.48 17.22 297.87 17.12C298.12 17.06 298.35 16.95 298.59 16.88C298.82 16.82 299.06 16.78 299.3 16.73C299.42 16.7 299.55 16.67 299.66 16.62C299.88 16.54 300.11 16.47 300.32 16.37C300.44 16.32 300.58 16.25 300.65 16.14C300.92 15.76 301.28 15.47 301.64 15.17C301.83 15.01 301.97 14.79 302.08 14.56C302.25 14.22 302.41 13.9 302.88 13.95C302.98 13.95 303.1 13.86 303.19 13.79C303.41 13.6 303.63 13.4 303.84 13.21C303.87 13.18 303.9 13.12 303.93 13.11C304.49 12.93 304.68 12.4 304.98 11.98C305.28 11.57 305.61 11.24 306.08 11.04C306.88 10.7 307.6 10.22 308.14 9.55C308.42 9.2 308.81 8.93 308.92 8.45C308.92 8.41 308.99 8.35 309.03 8.35C309.38 8.33 309.58 8.1 309.79 7.86C309.84 7.8 309.91 7.76 309.96 7.72C309.93 7.53 309.83 7.32 309.89 7.19C309.94 7.09 310.19 7.1 310.35 7.04C310.53 6.97 310.7 6.88 310.88 6.81C311.04 6.75 311.21 6.73 311.36 6.67C311.47 6.63 311.57 6.56 311.65 6.48C311.81 6.31 311.91 6.05 312.09 5.95C312.65 5.64 312.94 5.12 313.22 4.59C313.4 4.25 313.61 3.91 313.8 3.57C313.85 3.48 313.89 3.38 313.89 3.29C313.89 3 314.11 2.73 313.99 2.42C313.98 2.39 314.02 2.34 314.05 2.3C314.22 2.07 314.39 1.84 314.58 1.62C314.77 1.39 315.02 1.26 315.32 1.27C315.65 1.27 315.89 1.13 316.17 0.970004C316.78 0.620004 317.43 0.330004 318.08 0.0400036C318.2 -0.00999641 318.4 0.0200036 318.52 0.0900036C318.86 0.310004 319.2 0.550004 319.5 0.820004C319.63 0.930004 319.69 1.15 319.73 1.32C319.78 1.54 319.83 1.73 320.02 1.88C320.28 2.09 320.26 2.3 319.99 2.5C319.59 2.79 319.19 3.08 318.77 3.39C318.96 3.61 318.92 3.81 318.65 3.98C318.5 4.07 318.57 4.17 318.65 4.28C318.81 4.52 318.77 4.57 318.49 4.62C318.37 4.64 318.25 4.72 318.17 4.81C317.85 5.17 317.54 5.53 317.23 5.9C317.16 5.98 317.11 6.12 317.12 6.22C317.17 6.57 317 6.77 316.73 6.94C316.62 7.01 316.51 7.07 316.4 7.14C316.23 7.25 316.11 7.39 316.17 7.61C316.17 7.63 316.17 7.65 316.17 7.66C316.07 8.02 315.99 8.39 315.87 8.74C315.84 8.82 315.72 8.9 315.63 8.93C315.32 9.03 315.15 9.25 315.09 9.56C315.03 9.87 314.86 10.08 314.57 10.18C314.41 10.23 314.36 10.32 314.36 10.47C314.36 10.7 314.3 10.88 314.01 10.88C313.79 10.88 313.76 11.09 313.72 11.26C313.66 11.46 313.63 11.68 313.53 11.85C313.37 12.14 313.09 12.27 312.77 12.33C312.37 12.4 312.12 12.63 312.04 13.04C312.04 13.07 312.04 13.1 312.02 13.12C311.7 13.68 311.37 14.24 311.05 14.81C310.98 14.93 310.97 15.08 310.91 15.21C310.83 15.37 310.73 15.52 310.65 15.68C310.57 15.83 310.45 15.98 310.43 16.14C310.39 16.48 310.39 16.83 310.38 17.17C310.37 17.52 310.26 17.8 309.9 17.95C309.75 18.01 309.62 18.16 309.53 18.3C309.31 18.63 309.01 18.83 308.66 18.98C308.43 19.08 308.19 19.19 307.95 19.26C307.3 19.43 306.86 19.93 306.35 20.32C306.28 20.38 306.28 20.53 306.24 20.64C306.2 20.77 306.19 20.92 306.11 21.03C305.99 21.21 305.75 21.33 305.89 21.62C305.89 21.64 305.89 21.67 305.87 21.7C305.71 22.02 305.05 22.2 304.75 22C304.57 21.88 304.4 21.74 304.24 21.59C304.09 21.45 304.12 21.29 304.28 21.19C304.57 21.01 304.85 20.8 305.16 20.6L305.13 20.61ZM295.52 20.56C295.52 20.56 295.48 20.51 295.46 20.49C295.27 20.62 295.1 20.77 294.9 20.89C294.68 21.02 294.45 21.21 294.23 21.2C293.76 21.18 293.31 21.16 292.88 21.38C292.84 21.4 292.77 21.38 292.72 21.38C292.22 21.41 291.73 21.41 291.24 21.47C291.03 21.49 290.84 21.64 290.65 21.42C290.62 21.38 290.5 21.42 290.42 21.42C290.13 21.42 289.85 21.45 289.56 21.42C289.33 21.4 289.11 21.53 289.07 21.74C289.04 21.88 288.97 22.01 288.91 22.18C288.94 22.18 289.02 22.22 289.09 22.22C289.77 22.18 290.41 22.35 291.05 22.54C291.33 22.62 291.61 22.71 291.9 22.59C292.42 22.38 292.95 22.18 293.47 21.97C293.76 21.85 294.05 21.78 294.37 21.92C294.61 22.02 294.79 21.92 294.91 21.69C295.03 21.46 295.15 21.24 295.27 21.01C295.35 20.86 295.45 20.71 295.54 20.56H295.52Z" fill="#62CAE3"/>
<path d="M284.56 38.9C283.3 39.83 282.37 40.97 281.65 42.29C280.22 44.93 279.82 47.74 280 50.66C281.52 49.43 283.32 48.4 285.45 47.54C287.56 46.81 288.73 46.52 288.88 46.48C288.95 46.47 289.01 46.46 289.07 46.45C289.08 46.16 289.11 45.88 289.15 45.59C289.64 42.17 292.51 39.75 296.02 39.7C296.15 39.7 296.31 39.64 296.42 39.56C297.18 38.97 297.94 38.36 298.75 37.71C295.29 34.94 291.38 34.22 287.1 35.54C283.03 36.79 279.86 40.64 279.47 44.5C280.77 41.47 283.19 39.29 284.57 38.92L284.56 38.9Z" fill="url(#paint3_linear_2031_423)"/>
</g>
<defs>
<linearGradient id="paint0_linear_2031_423" x1="290.52" y1="74.87" x2="300.97" y2="74.87" gradientUnits="userSpaceOnUse">
<stop stop-color="#856929"/>
<stop offset="0.17" stop-color="#F2E28F"/>
<stop offset="0.47" stop-color="#AE954A"/>
<stop offset="0.68" stop-color="#D3BF6D"/>
<stop offset="0.8" stop-color="#A58735"/>
<stop offset="1" stop-color="#C9AD58"/>
</linearGradient>
<linearGradient id="paint1_linear_2031_423" x1="267.66" y1="64.5" x2="348.77" y2="14.2501" gradientUnits="userSpaceOnUse">
<stop stop-color="#856929"/>
<stop offset="0.17" stop-color="#F2E28F"/>
<stop offset="0.47" stop-color="#AE954A"/>
<stop offset="0.68" stop-color="#D3BF6D"/>
<stop offset="0.8" stop-color="#A58735"/>
<stop offset="1" stop-color="#C9AD58"/>
</linearGradient>
<linearGradient id="paint2_linear_2031_423" x1="276.59" y1="78.92" x2="357.7" y2="28.66" gradientUnits="userSpaceOnUse">
<stop stop-color="#856929"/>
<stop offset="0.17" stop-color="#F2E28F"/>
<stop offset="0.47" stop-color="#AE954A"/>
<stop offset="0.68" stop-color="#D3BF6D"/>
<stop offset="0.8" stop-color="#A58735"/>
<stop offset="1" stop-color="#C9AD58"/>
</linearGradient>
<linearGradient id="paint3_linear_2031_423" x1="262.71" y1="56.51" x2="343.81" y2="6.25" gradientUnits="userSpaceOnUse">
<stop stop-color="#856929"/>
<stop offset="0.17" stop-color="#F2E28F"/>
<stop offset="0.47" stop-color="#AE954A"/>
<stop offset="0.68" stop-color="#D3BF6D"/>
<stop offset="0.8" stop-color="#A58735"/>
<stop offset="1" stop-color="#C9AD58"/>
</linearGradient>
<clipPath id="clip0_2031_423">
<rect width="631.93" height="79.62" fill="white"/>
</clipPath>
</defs>
</svg>
