<svg width="16" height="16" viewBox="0 0 16 16" fill="none" xmlns="http://www.w3.org/2000/svg">
<path d="M6.6663 3.33334C6.33502 3.33336 6.01562 3.45671 5.7703 3.67934L1.55164 7.50601C1.48278 7.5685 1.42776 7.6447 1.39011 7.72972C1.35246 7.81474 1.33301 7.90669 1.33301 7.99968C1.33301 8.09266 1.35246 8.18461 1.39011 8.26963C1.42776 8.35465 1.48278 8.43085 1.55164 8.49334L5.7703 12.3207C6.01562 12.5433 6.33502 12.6667 6.6663 12.6667H13.333C13.6866 12.6667 14.0257 12.5262 14.2758 12.2762C14.5258 12.0261 14.6663 11.687 14.6663 11.3333V4.66668C14.6663 4.31305 14.5258 3.97392 14.2758 3.72387C14.0257 3.47382 13.6866 3.33334 13.333 3.33334H6.6663Z" stroke="#856929" stroke-width="1.5" stroke-linecap="round" stroke-linejoin="round"/>
<path d="M8 6L12 10" stroke="#856929" stroke-width="1.5" stroke-linecap="round" stroke-linejoin="round"/>
<path d="M12 6L8 10" stroke="#856929" stroke-width="1.5" stroke-linecap="round" stroke-linejoin="round"/>
</svg>
